<?xml version="1.0" encoding="utf-8"?>
<svg version="1.1" x="0px" y="0px" viewBox="149.746 0 684.978 501.903" style="enable-background:new 0 0 750 500;" xmlns="http://www.w3.org/2000/svg">
  <g id="OBJECTS">
    <g>
      <defs>
        <rect id="SVGID_1_" width="750" height="500"/>
      </defs>
      <clipPath id="SVGID_00000161622842633534598510000016454961924248138934_">
        <rect width="750" height="500" style="overflow: visible;" x="1.268" y="-1.268"/>
      </clipPath>
      <g style="clip-path:url(#SVGID_00000161622842633534598510000016454961924248138934_);">
        <path style="fill:#FFFFFF;" d="M514.114,194.186c0,3.567-2.891,6.458-6.458,6.458s-6.458-2.891-6.458-6.458 c0-3.567,2.891-6.458,6.458-6.458S514.114,190.62,514.114,194.186z"/>
        <path style="fill:#FFFFFF;" d="M725.875,110.91c0,3.567-2.891,6.458-6.458,6.458c-3.567,0-6.458-2.891-6.458-6.458 c0-3.567,2.891-6.458,6.458-6.458C722.983,104.451,725.875,107.343,725.875,110.91z"/>
        <circle style="fill:#FFFFFF;" cx="516.629" cy="149.024" r="15.296"/>
        <path style="fill:#FFFFFF;" d="M366.595,472.228c0,2.816-2.283,5.099-5.098,5.099c-2.816,0-5.099-2.283-5.099-5.099 c0-2.816,2.283-5.099,5.099-5.099C364.313,467.13,366.595,469.413,366.595,472.228z"/>
      </g>
      <g style="clip-path:url(#SVGID_00000161622842633534598510000016454961924248138934_);">
        <path style="fill:#CADCA1;" d="M430.356,199.29c0.02,0.032,0.027,0.046,0.027,0.046c23.302,4.233,33.429-17.396,34.265-25.34 c0.83-7.948,3.868-17.135,3.868-17.135c-0.025-0.001-0.056-0.007-0.085-0.002c-19.43-0.949-31.309,9.404-31.309,9.404 C421.071,179.822,429.83,198.216,430.356,199.29z"/>
        <path style="fill:#9CB85E;" d="M430.356,199.29c7.44-9.945,27.252-35.68,38.075-42.432c-19.43-0.949-31.309,9.404-31.309,9.404 C421.071,179.822,429.83,198.216,430.356,199.29z"/>
        <path style="fill:#F8FFE8;" d="M459.236,164.506c0,0-28.313,32.443-32.158,41.614l-1.852-1.105 C425.226,205.015,450.554,171.991,459.236,164.506z"/>
      </g>
      <g style="clip-path:url(#SVGID_00000161622842633534598510000016454961924248138934_);">
        <g>
          <path style="fill:#DE6A7C;" d="M481.524,226.487c0,0-5.556,5.484-9.318,4.457s-2.916-3.52-1.104-5.274 C472.914,223.916,481.524,226.487,481.524,226.487z"/>
          <path style="fill:#DE6A7C;" d="M481.526,226.495c0,0-7.414-2.446-8.214-6.262c-0.8-3.816,1.804-4.2,4.191-3.387 C479.89,217.659,481.526,226.495,481.526,226.495z"/>
          <path style="fill:#DE6A7C;" d="M481.526,226.495c0,0-1.891-7.575,0.908-10.289c2.799-2.714,4.514-0.718,5.101,1.735 C488.122,220.393,481.526,226.495,481.526,226.495z"/>
          <path style="fill:#DE6A7C;" d="M481.526,226.495c0,0,5.395-5.644,9.184-4.726c3.789,0.917,3.018,3.434,1.258,5.239 C490.207,228.814,481.526,226.495,481.526,226.495z"/>
          <path style="fill:#DE6A7C;" d="M481.526,226.495c0,0,7.592,1.821,8.706,5.558c1.115,3.736-1.448,4.336-3.895,3.723 C483.891,235.163,481.526,226.495,481.526,226.495z"/>
          <path style="fill:#DE6A7C;" d="M481.526,226.495c0,0,2.089,7.522-0.637,10.309c-2.727,2.787-4.494,0.836-5.145-1.6 C475.092,232.767,481.526,226.495,481.526,226.495z"/>
        </g>
        <g>
          <g>
            <path style="fill:#DE6A7C;" d="M345.434,150.026c0,0-3.483,4.083-6.119,3.601c-2.636-0.482-2.205-2.239-1.067-3.547 S345.434,150.026,345.434,150.026z"/>
            <path style="fill:#DE6A7C;" d="M345.436,150.031c0,0-5.221-1.238-5.994-3.805c-0.773-2.566,0.988-2.983,2.671-2.566 C343.795,144.077,345.436,150.031,345.436,150.031z"/>
            <path style="fill:#DE6A7C;" d="M345.436,150.031c0,0-1.741-5.076,0.016-7.1c1.757-2.024,3.049-0.757,3.596,0.888 C349.594,145.464,345.436,150.031,345.436,150.031z"/>
            <path style="fill:#DE6A7C;" d="M345.436,150.031c0,0,3.362-4.183,6.012-3.778c2.649,0.405,2.269,2.174,1.169,3.514 C351.518,151.109,345.436,150.031,345.436,150.031z"/>
            <path style="fill:#DE6A7C;" d="M345.436,150.031c0,0,5.306,0.801,6.29,3.294c0.983,2.493-0.737,3.055-2.448,2.779 C347.566,155.829,345.436,150.031,345.436,150.031z"/>
            <path style="fill:#DE6A7C;" d="M345.436,150.031c0,0,1.874,5.029,0.17,7.098c-1.704,2.069-3.029,0.837-3.618-0.793 C341.399,154.706,345.436,150.031,345.436,150.031z"/>
          </g>
          <g>
            <path style="fill:#DE6A7C;" d="M382.935,129.353c0,0-7.617,1.714-10.265-1.148c-2.648-2.862-0.612-4.53,1.853-5.06 C376.989,122.616,382.935,129.353,382.935,129.353z"/>
            <path style="fill:#DE6A7C;" d="M382.932,129.36c0,0-4.997-5.998-3.657-9.66c1.34-3.661,3.753-2.61,5.348-0.657 C386.219,120.997,382.932,129.36,382.932,129.36z"/>
            <path style="fill:#DE6A7C;" d="M382.932,129.36c0,0,2.403-7.428,6.215-8.25c3.811-0.822,4.211,1.78,3.411,4.171 C391.758,127.673,382.932,129.36,382.932,129.36z"/>
            <path style="fill:#DE6A7C;" d="M382.932,129.36c0,0,7.564-1.935,10.294,0.849c2.73,2.783,0.744,4.51-1.705,5.111 C389.072,135.921,382.932,129.36,382.932,129.36z"/>
            <path style="fill:#DE6A7C;" d="M382.932,129.36c0,0,5.478,5.563,4.447,9.322c-1.031,3.76-3.523,2.913-5.275,1.099 C380.352,137.967,382.932,129.36,382.932,129.36z"/>
            <path style="fill:#DE6A7C;" d="M382.932,129.36c0,0-2.207,7.489-5.996,8.411c-3.788,0.922-4.256-1.669-3.519-4.08 C374.154,131.279,382.932,129.36,382.932,129.36z"/>
          </g>
          <g>
            <path style="fill:#DE6A7C;" d="M354.016,450.729c0,0-7.208,7.115-12.088,5.782c-4.879-1.332-3.784-4.566-1.433-6.842 C342.846,447.394,354.016,450.729,354.016,450.729z"/>
            <path style="fill:#DE6A7C;" d="M354.019,450.739c0,0-9.618-3.173-10.656-8.123c-1.038-4.951,2.34-5.449,5.437-4.394 C351.895,439.277,354.019,450.739,354.019,450.739z"/>
            <path style="fill:#DE6A7C;" d="M354.019,450.739c0,0-2.453-9.826,1.178-13.348c3.631-3.521,5.857-0.931,6.618,2.25 C362.576,442.824,354.019,450.739,354.019,450.739z"/>
            <path style="fill:#DE6A7C;" d="M354.019,450.739c0,0,6.998-7.321,11.914-6.132c4.916,1.19,3.915,4.454,1.631,6.797 C365.281,453.748,354.019,450.739,354.019,450.739z"/>
            <path style="fill:#DE6A7C;" d="M354.019,450.739c0,0,9.849,2.363,11.294,7.21c1.446,4.847-1.879,5.625-5.053,4.83 C357.087,461.986,354.019,450.739,354.019,450.739z"/>
            <path style="fill:#DE6A7C;" d="M354.019,450.739c0,0,2.711,9.759-0.827,13.374c-3.537,3.615-5.83,1.085-6.675-2.076 C345.672,458.877,354.019,450.739,354.019,450.739z"/>
          </g>
        </g>
      </g>
      <g style="clip-path:url(#SVGID_00000161622842633534598510000016454961924248138934_);">
        <g>
          <path style="fill:#E897A4;" d="M462.499,185.859c0,0-0.071,1.052-0.213,2.929c-0.071,0.825-0.142,1.806-0.228,2.943 c-1.379,18.655-5.687,76.61-7.308,98.294c-1.607,21.3-7.294,75.771-9.711,98.55c-0.114,0.91-0.199,1.777-0.284,2.573h-68.108 c-2.218-20.972-8.318-78.97-9.967-101.123c-1.635-21.684-5.943-79.639-7.337-98.294c-0.27-3.711-0.426-5.872-0.426-5.872 H462.499z"/>
          <path style="fill:#DE6A7C;" d="M416.192,351.8c0,3.8-3.08,6.88-6.88,6.88c-3.8,0-6.88-3.08-6.88-6.88c0-3.8,3.08-6.88,6.88-6.88 C413.112,344.92,416.192,348,416.192,351.8z"/>
          <path style="fill:#DE6A7C;" d="M424.448,344.37c0,0.76-0.616,1.376-1.376,1.376c-0.76,0-1.376-0.616-1.376-1.376 c0-0.76,0.616-1.376,1.376-1.376C423.832,342.993,424.448,343.609,424.448,344.37z"/>
          <path style="fill:#DE6A7C;" d="M462.286,188.788c-0.071,0.825-0.142,1.806-0.228,2.943c0,0-4.948,22.195-5.687,42.372 c-0.64,17.546-10.963,126.205-13.664,154.401l-50.732-1.479c0,0,33.03-15.129,40.182-40.452 c7.152-25.323-0.469-136.044-6.014-145.443c-5.545-9.398-14.944-12.342-14.944-12.342H462.286z"/>
          <path style="fill:#E897A4;" d="M435.181,227.272c0,2.964-2.403,5.366-5.366,5.366c-2.964,0-5.366-2.403-5.366-5.366 c0-2.964,2.403-5.366,5.366-5.366C432.778,221.905,435.181,224.308,435.181,227.272z"/>
          <path style="fill:#E897A4;" d="M437.107,213.649c0,1.064-0.862,1.926-1.926,1.926c-1.064,0-1.926-0.863-1.926-1.926 c0-1.064,0.862-1.927,1.926-1.927C436.245,211.723,437.107,212.585,437.107,213.649z"/>
          <path style="fill:#DE5268;" d="M462.496,185.859c0,0-0.157,2.161-0.435,5.872H359.348c-0.278-3.711-0.435-5.872-0.435-5.872 H462.496z"/>
          <ellipse transform="matrix(0.9252 -0.3795 0.3795 0.9252 -73.8297 176.4669)" style="fill:#FFCCD3;" cx="410.671" cy="275.493" rx="27.32" ry="27.32"/>
          <g>
            <g>
              <path style="fill:#FAFDFE;" d="M411.134,275.554c0,0-9.992,1.948-13.336-1.882c-3.344-3.829-0.628-5.928,2.605-6.525 C403.637,266.55,411.134,275.554,411.134,275.554z"/>
              <path style="fill:#FAFDFE;" d="M411.131,275.564c0,0-6.288-8.006-4.404-12.728c1.884-4.722,4.99-3.261,6.996-0.655 C415.728,264.787,411.131,275.564,411.131,275.564z"/>
              <path style="fill:#FAFDFE;" d="M411.131,275.564c0,0,3.411-9.592,8.41-10.52c4.998-0.928,5.421,2.478,4.289,5.565 C422.698,273.696,411.131,275.564,411.131,275.564z"/>
              <path style="fill:#FAFDFE;" d="M411.131,275.564c0,0,9.931-2.238,13.386,1.493c3.454,3.731,0.8,5.907-2.415,6.598 C418.887,284.347,411.131,275.564,411.131,275.564z"/>
              <path style="fill:#FAFDFE;" d="M411.131,275.564c0,0,6.932,7.456,5.446,12.318c-1.485,4.862-4.702,3.664-6.917,1.234 C407.445,286.686,411.131,275.564,411.131,275.564z"/>
              <path style="fill:#FAFDFE;" d="M411.131,275.564c0,0-3.158,9.678-8.131,10.738c-4.973,1.06-5.485-2.334-4.434-5.45 C399.617,277.736,411.131,275.564,411.131,275.564z"/>
            </g>
            <path style="fill:#FFCCD3;" d="M412.668,275.356c0,0.857-0.695,1.552-1.552,1.552c-0.857,0-1.552-0.695-1.552-1.552 c0-0.857,0.695-1.552,1.552-1.552C411.973,273.804,412.668,274.499,412.668,275.356z"/>
          </g>
          <path style="fill:#FAFDFE;" d="M363.72,200.715l8.806,117.235c0,0-0.367-44.766-1.651-55.04 C369.591,252.636,363.72,200.715,363.72,200.715z"/>
          <path style="fill:#FAFDFE;" d="M374.728,233.555c0,0.405-0.329,0.734-0.734,0.734c-0.405,0-0.734-0.329-0.734-0.734 c0-0.405,0.328-0.734,0.734-0.734C374.4,232.822,374.728,233.15,374.728,233.555z"/>
          <path style="fill:#FAFDFE;" d="M382.984,228.51c0,1.368-1.109,2.477-2.477,2.477c-1.368,0-2.477-1.109-2.477-2.477 s1.109-2.477,2.477-2.477C381.875,226.033,382.984,227.142,382.984,228.51z"/>
        </g>
        <g>
          <path style="fill:#FAFDFE;" d="M444.754,391.148v27.272c0,1.564-1.251,2.83-2.815,2.83h-62.477 c-1.265,0-2.346-0.853-2.702-2.019c-0.071-0.256-0.114-0.526-0.114-0.811v-27.272H444.754z"/>
          <path style="fill:#E6DDE3;" d="M415.819,419.23h-39.059c-0.071-0.256-0.114-0.526-0.114-0.811v-27.272h52.936l-15.228,3.313 h-16.878v2.659h11.19C408.667,397.12,407.018,414.268,415.819,419.23z"/>
          <path style="fill:#FAFDFE;" d="M414.334,412.447c0,1.729-1.402,3.13-3.13,3.13c-1.729,0-3.13-1.402-3.13-3.13 c0-1.729,1.402-3.13,3.13-3.13C412.933,409.317,414.334,410.718,414.334,412.447z"/>
          <path style="fill:#FAFDFE;" d="M406.468,406.198c0,0.633-0.513,1.146-1.146,1.146c-0.633,0-1.146-0.513-1.146-1.146 c0-0.633,0.513-1.146,1.146-1.146C405.955,405.052,406.468,405.565,406.468,406.198z"/>
          <rect x="376.647" y="396.11" style="fill:#C4BDC2;" width="68.108" height="1.373"/>
        </g>
      </g>
      <g style="clip-path:url(#SVGID_00000161622842633534598510000016454961924248138934_);">
        <g>
          <path style="fill:#99C3C4;" d="M345.38,335.877c0.017-0.022,0.025-0.03,0.025-0.03c-3.004-17.325-20.669-18.858-26.42-17.41 c-5.752,1.452-12.933,1.682-12.933,1.682c0.006,0.018,0.01,0.041,0.02,0.06c4.304,13.787,14.556,19.422,14.556,19.422 C334.182,347.324,344.766,336.518,345.38,335.877z"/>
          <path style="fill:#599AAB;" d="M345.38,335.877c-8.833-2.645-31.835-9.879-39.307-15.699 c4.304,13.787,14.556,19.422,14.556,19.422C334.182,347.324,344.766,336.518,345.38,335.877z"/>
          <path style="fill:#BFE3E8;" d="M313.753,324.634c0,0,29.85,11.446,37.226,11.783l-0.297,1.573 C350.681,337.99,321.189,328.773,313.753,324.634z"/>
        </g>
        <g>
          <g>
            <path style="fill:#00647D;" d="M366.153,323.493c0,0-7.269-44.154-32.531-64.459c0,0,24.328,13.235,33.955,63.523 L366.153,323.493z"/>
            <path style="fill:#00647D;" d="M341.408,265.818c0,0-20.231-12.808-20.263-17.841 C321.114,242.945,331.776,251.691,341.408,265.818z"/>
            <path style="fill:#00647D;" d="M345.951,271.511c0,0-12.189-19.661-7.077-20.686 C343.986,249.801,345.951,271.511,345.951,271.511z"/>
            <path style="fill:#00647D;" d="M345.189,270.617c0,0-18.025-0.806-18.604-4.816 C326.006,261.79,338.639,266.697,345.189,270.617z"/>
            <path style="fill:#00647D;" d="M350.036,276.667c0,0-6.127-21.31-1.704-22.056 C352.756,253.865,351.728,267.575,350.036,276.667z"/>
            <path style="fill:#00647D;" d="M349.526,276.793c0,0-16.695,0.899-18.086-2.543C330.05,270.808,338.63,271.826,349.526,276.793 z"/>
            <path style="fill:#00647D;" d="M354.218,285.629c0,0-3.013-25.691,3.356-26.182 C363.942,258.956,354.218,285.629,354.218,285.629z"/>
            <path style="fill:#00647D;" d="M354.118,284.788c0,0-18.646-0.955-20.104-3.97 C332.556,277.804,336.435,275.115,354.118,284.788z"/>
            <path style="fill:#00647D;" d="M357.553,293.091c0,0,2.035-25.488,7.492-26.252 C370.503,266.075,363.754,280.094,357.553,293.091z"/>
            <path style="fill:#00647D;" d="M360.045,299.853c0,0,4.946-21.059,9.062-22.962c4.116-1.903,5.047,0.203,2.474,5.727 C369.008,288.142,360.045,299.853,360.045,299.853z"/>
            <path style="fill:#00647D;" d="M362.996,307.95c0,0,7.241-22.704,11.538-22.882c4.296-0.178,2.276,4.85-0.56,9.65 C371.138,299.517,362.996,307.95,362.996,307.95z"/>
            <path style="fill:#00647D;" d="M365.23,315.857c0,0,8.74-23.817,13.15-22.65s1.467,5.681-0.328,8.566 C376.258,304.657,365.23,315.857,365.23,315.857z"/>
            <path style="fill:#00647D;" d="M365.483,315.406c0,0-22.191,0.089-24.662-5.465 C338.351,304.387,348.253,306.672,365.483,315.406z"/>
            <path style="fill:#00647D;" d="M362.886,308.221c0,0-23.696-1.315-23.847-6.932 C338.888,295.672,351.76,300.576,362.886,308.221z"/>
            <path style="fill:#00647D;" d="M360.51,299.95c0,0-24.805-3.852-24.348-9.002C336.619,285.797,356.224,295.468,360.51,299.95z"/>
            <path style="fill:#00647D;" d="M357.811,291.946c0,0-21.838-3.109-22.511-6.361 C334.626,282.333,344.729,285.138,357.811,291.946z"/>
          </g>
        </g>
        <g>
          <path style="fill:#CADCA1;" d="M261.819,400.217c-0.012,0.021-0.017,0.03-0.017,0.03c-14.803,2.891-21.433-10.798-22.032-15.849 c-0.595-5.054-2.607-10.879-2.607-10.879c0.016-0.001,0.036-0.005,0.054-0.002c12.365-0.767,20.016,5.726,20.016,5.726 C267.568,387.742,262.145,399.529,261.819,400.217z"/>
          <path style="fill:#9CB85E;" d="M261.819,400.217c-4.821-6.27-17.653-22.492-24.602-26.701 c12.365-0.767,20.016,5.726,20.016,5.726C267.568,387.742,262.145,399.529,261.819,400.217z"/>
          <path style="fill:#F8FFE8;" d="M243.137,378.309c0,0,18.301,20.422,20.827,26.23l1.17-0.719 C265.134,403.82,248.729,383.002,243.137,378.309z"/>
        </g>
        <g>
          <g>
            <path style="fill:#FFEBEA;" d="M357.695,328.464l-0.071,0.32l-0.001,0.004l-0.235,1.09l-0.307,1.431 c0,0-1.178,1.296-2.902,3.164c-1.052,1.142-2.306,2.491-3.615,3.892c-3.945,4.211-8.403,8.84-9.396,9.354 c-1.858,0.967-12.373-5.013-13.743-9.94c-1.366-4.926,0.733-11.287,5.314-12.634c0.004,0.001,0.005-0.003,0.009-0.002 c2.09-0.608,7.426,0.018,12.628,0.888c2.982,0.499,5.926,1.075,8.19,1.542l0.004,0.001 C356.041,328.086,357.695,328.464,357.695,328.464z"/>
            <path style="fill:#FFEBEA;" d="M353.593,300.318c0.961,0.989,1.885,4.88,2.661,9.423c0.514,3.033,0.966,6.358,1.315,9.301 c-0.001,0.004,0.001,0.014,0,0.018c0.527,4.421,0.834,7.979,0.802,8.397c-0.002,0.008-0.002,0.022-0.004,0.03 c-0.045,0.512-0.39,0.963-0.742,1.298l-0.001,0.004c-0.403,0.391-0.816,0.625-0.816,0.625 c-0.063-0.075-1.342-0.772-3.238-1.839l-0.004-0.001c-2.125-1.192-5.032-2.842-7.873-4.584 c-2.975-1.814-5.888-3.73-7.783-5.326c-1.245-1.045-2.052-1.951-2.153-2.605c-0.529-3.443,3.036-13.034,6.591-14.779 c1.709-0.841,3.785-1.479,5.763-1.619C350.243,298.519,352.262,298.945,353.593,300.318z"/>
            <path style="fill:#FFEBEA;" d="M373.729,294.965c0.126,0.149,0.271,0.344,0.431,0.578c1.91,2.767,5.974,10.925,5.828,12.982 c-0.067,0.929-3.68,4.447-7.883,8.248c-4.842,4.377-10.466,9.128-12.333,10.697c0,0-0.001,0.004-0.005,0.003 c-0.407,0.341-0.637,0.533-0.637,0.533c-0.029-0.008-0.067-0.027-0.113-0.053c-0.153-0.086-0.389-0.266-0.651-0.467 c-0.597-0.469-1.299-1.073-1.299-1.073s0.158-3.09,0.5-7.354c0.001-0.004-0.001-0.013,0-0.018 c0.234-2.95,0.553-6.462,0.962-9.901c0.524-4.381,1.196-8.642,2.024-11.463c0.474-1.619,1.002-2.764,1.59-3.183 C365.691,291.949,372.098,293.038,373.729,294.965z"/>
            <path style="fill:#FFEBEA;" d="M382.624,315.852c3.348,1.041,4.303,8.696,3.904,13.023c-0.098,1.057-0.666,2.473-1.508,4.003 c-2.589,4.723-7.73,10.533-9.348,10.169c-0.286-0.066-0.806-0.351-1.493-0.801c-1.57-1.016-3.996-2.872-6.487-4.848 c-4.456-3.537-9.109-7.46-9.364-7.671c-0.007-0.006-0.01-0.012-0.01-0.012l0.302-1.507c0,0,0.139-0.089,0.397-0.256 c0.187-0.12,0.444-0.283,0.75-0.48c0.004,0.001,0.005-0.003,0.005-0.003c2.397-1.527,8.125-5.109,13.302-7.908 C377.386,317.233,381.317,315.447,382.624,315.852z"/>
            <path style="fill:#FFEBEA;" d="M358.318,329.716c0,0,0.003,0.005,0.01,0.012c0.207,0.255,3.859,4.804,7.09,9.391 c2.752,3.912,5.198,7.85,4.935,9.166c-0.251,1.275-1.742,3.639-3.659,5.868c-2.472,2.868-5.66,5.504-7.839,5.285 c-3.877-0.389-12.424-1.96-12.472-5.499c-0.005-0.173,0.02-0.391,0.062-0.639c0.437-2.506,3.049-8.619,5.47-13.948 c0.805-1.765,1.587-3.444,2.262-4.879c1.229-2.613,2.109-4.406,2.109-4.406l1.101-0.189L358.318,329.716z"/>
          </g>
          <path style="fill:#FEC0BD;" d="M363.822,309.401c3.758,1.039,6.657,3.785,8.283,7.372c-4.842,4.377-10.466,9.128-12.333,10.697 c2.397-1.527,8.125-5.109,13.302-7.908c0.712,2.859,0.706,6.052-0.175,9.238c-0.967,3.496-2.838,6.452-5.208,8.6 c-4.456-3.537-9.109-7.46-9.364-7.671c0.207,0.255,3.859,4.804,7.09,9.391c-3.11,1.939-6.754,2.637-10.275,1.663 c-1.163-0.322-2.241-0.805-3.227-1.43c0.805-1.765,1.587-3.444,2.262-4.879c-1.052,1.142-2.306,2.491-3.615,3.892 c-3.342-2.802-5.283-7.367-5.188-12.334c2.982,0.499,5.926,1.075,8.19,1.542c-2.125-1.192-5.032-2.842-7.873-4.584 c0.1-0.536,0.223-1.076,0.371-1.612c1.575-5.695,5.548-9.96,10.191-11.637c0.514,3.033,0.966,6.358,1.315,9.301 c0.234-2.95,0.553-6.462,0.962-9.901C360.269,308.845,362.062,308.914,363.822,309.401z"/>
          <g>
            <polygon style="fill:#F8827F;" points="360.029,329.28 381.036,329.403 359.359,328.412 &#9;&#9;&#9;&#9;&#9;"/>
            <polygon style="fill:#F8827F;" points="358.13,325.456 366.46,302.738 358.84,325.766 &#9;&#9;&#9;&#9;&#9;"/>
            <path style="fill:#F8827F;" d="M345.711,313.605c0.124,0.375,10.748,13.777,10.748,13.777l0.609-0.969L345.711,313.605z"/>
            <polygon style="fill:#F8827F;" points="338.26,335.202 356.286,330.065 356.068,329.208 &#9;&#9;&#9;&#9;&#9;"/>
            <polygon style="fill:#F8827F;" points="356.831,349.891 357.303,330.914 358.17,330.244 &#9;&#9;&#9;&#9;&#9;"/>
          </g>
          <path style="fill:#DE578E;" d="M358.791,324.501c1.896,0.524,2.945,2.723,2.339,4.913c-0.311,1.126-1.002,2.028-1.856,2.568 c-0.802,0.51-1.758,0.699-2.675,0.446c-1.896-0.524-2.944-2.727-2.339-4.913c0.134-0.483,0.335-0.925,0.593-1.317 C355.754,324.82,357.313,324.092,358.791,324.501z"/>
          <path style="fill:#F685B4;" d="M357.539,325.746c1.896,0.524,2.94,2.726,2.335,4.912c-0.135,0.487-0.341,0.932-0.6,1.324 c-0.802,0.51-1.758,0.699-2.675,0.446c-1.896-0.524-2.944-2.727-2.339-4.913c0.134-0.483,0.335-0.925,0.593-1.317 C355.662,325.681,356.618,325.491,357.539,325.746z"/>
          <path style="fill:#FFEBEA;" d="M355.643,327.868c0.306,0.085,0.46,0.496,0.343,0.919c-0.117,0.423-0.46,0.697-0.767,0.613 c-0.306-0.085-0.46-0.496-0.343-0.919C354.993,328.057,355.336,327.783,355.643,327.868z"/>
          <path style="fill:#FFEBEA;" d="M356.526,329.904c0.148,0.041,0.222,0.24,0.165,0.444c-0.056,0.204-0.222,0.337-0.37,0.296 s-0.222-0.24-0.165-0.444C356.213,329.995,356.378,329.862,356.526,329.904z"/>
        </g>
      </g>
      <g style="clip-path:url(#SVGID_00000161622842633534598510000016454961924248138934_);">
        <path style="fill:#9CB85E;" d="M398.716,339.611H268.193c-0.201,0-0.391,0.042-0.588,0.059l0.006-0.035l-0.232,0.058 c-0.673,0.079-1.326,0.223-1.926,0.481l-6.408,1.6l2.181,79.892c0,3.848,3.12,6.968,6.968,6.968h130.523 c3.848,0,6.968-3.12,6.968-6.968v-75.087C405.684,342.731,402.565,339.611,398.716,339.611z"/>
        <path style="fill:#CADCA1;" d="M397.521,348.671v72.995c0,3.846-3.108,6.967-6.968,6.967H260.039 c-3.846,0-6.968-3.121-6.968-6.967v-72.995c0-3.846,3.122-6.968,6.968-6.968h130.514 C394.413,341.703,397.521,344.825,397.521,348.671z"/>
        <path style="fill:#D9E3C1;" d="M326.818,341.703c-13.514,16.965-40.91,54.305-48.536,86.931h-18.242 c-3.846,0-6.968-3.121-6.968-6.967v-72.995c0-3.846,3.122-6.968,6.968-6.968H326.818z"/>
        <rect x="253.071" y="359.893" style="fill:#F8FFE8;" width="144.45" height="50.551"/>
        <path style="fill:#FAFDFE;" d="M268.448,348.758c0,1.361-1.103,2.464-2.464,2.464s-2.464-1.103-2.464-2.464 s1.103-2.464,2.464-2.464S268.448,347.397,268.448,348.758z"/>
        <path style="fill:#FAFDFE;" d="M275.819,354.77c0,0.763-0.618,1.381-1.381,1.381s-1.381-0.618-1.381-1.381 c0-0.763,0.618-1.381,1.381-1.381S275.819,354.007,275.819,354.77z"/>
        <g>
          <g>
            <path style="fill:#9CB85E;" d="M349.33,391.601c-3.44-0.91-7.652-1.235-12.529-0.974c-13.194,0.724-18.592-2.208-20.802-4.788 c-2.214-2.585-1.695-5.194-1.672-5.304l0.718,0.15c-0.02,0.096-0.461,2.39,1.526,4.694c2.108,2.446,7.328,5.213,20.19,4.517 c4.951-0.271,9.242,0.066,12.756,0.997L349.33,391.601z"/>
          </g>
          <path style="fill:#9CB85E;" d="M315.722,384.86c0,0-10.15-6.196-4.568-15.185c3.546-5.709,4.217,4.447,4.406,8.611 C315.75,382.45,315.722,384.86,315.722,384.86z"/>
          <g>
            <path style="fill:#9CB85E;" d="M325.097,389.762c0,0-11.632,4.981-18.153,1.484c-6.522-3.497-0.182-5.579,3.319-4.349 C313.763,388.127,320.155,390.641,325.097,389.762z"/>
            <path style="fill:#9CB85E;" d="M334.671,390.347c0,0-7.187-1.746-11.35-5.91c-4.164-4.163-0.946-8.043,2.744-6.718 C329.754,379.043,334.671,390.347,334.671,390.347z"/>
            <path style="fill:#9CB85E;" d="M339.217,390.178c0,0-7.476,4.762-13.626,5.33c0,0-4.164,1.041-0.946,3.974 C327.862,402.415,337.326,396.676,339.217,390.178z"/>
          </g>
        </g>
      </g>
      <g style="clip-path:url(#SVGID_00000161622842633534598510000016454961924248138934_);">
        <g>
          <path style="fill:#FCE8F2;" d="M476.599,463.978c0,0-26.916-2.557-39.114-13.663c-0.332-0.302-0.659-0.616-0.97-0.932 c0,0,8.32-3.368,19.533,0.238C462.309,451.626,469.479,455.812,476.599,463.978z"/>
          <path style="fill:#FCE8F2;" d="M475.834,463.241c0,0-21.381-18.91-23.81-35.395 C452.024,427.845,473.184,433.138,475.834,463.241z"/>
          <path style="fill:#F685B4;" d="M481.127,438.106c0.628,5.487,0.391,11.633-1.56,17.966c0,0-0.003,0.006-0.005,0.012 c-0.703,2.285-1.63,4.592-2.825,6.902c0,0-0.221-0.424-0.579-1.222c-0.873-1.947-2.551-6.138-3.767-11.908 c-1.784-8.418-2.597-20.204,1.463-33.34C473.855,416.518,479.714,425.593,481.127,438.106z"/>
          <path style="fill:#DE578E;" d="M476.349,424.461c0,0,2.723,7.388,4.779,13.645c0.628,5.487,0.391,11.633-1.56,17.966 c0,0-0.003,0.006-0.005,0.012c-1.37,2.571-2.762,4.722-3.404,5.681c-0.873-1.947-2.551-6.138-3.767-11.908 C473.718,441.592,476.349,424.461,476.349,424.461z"/>
          <path style="fill:#DE578E;" d="M475.679,464.009c0,0,20.32,25.926,26.886,40.919l1.692-0.273c0,0-12.176-24.565-27.748-41.576 L475.679,464.009z"/>
          <path style="fill:#F685B4;" d="M476.898,464.391c0,0-6.627,2.012-14.618,3.827c-7.59,1.733-16.422,3.294-21.97,2.794 c-0.659-0.058-1.272-0.145-1.833-0.268c0,0,2.026-2.3,6.109-4.545c5.607-3.094,15.095-6.084,28.526-2.854 C474.339,463.636,475.6,463.987,476.898,464.391z"/>
          <path style="fill:#DE578E;" d="M476.898,464.391c0,0-6.627,2.012-14.618,3.827c3.378-1.603,7.767-3.639,10.832-4.874 C474.339,463.636,475.6,463.987,476.898,464.391z"/>
          <path style="fill:#DE578E;" d="M486.946,418.244c0,0,0.096,0.293,0.24,0.85c1.119,4.32,5.162,24.532-10.497,45.772 c0.002-0.28,0.236-10.317,2.046-21.55C480.202,434.236,482.702,424.373,486.946,418.244z"/>
          <path style="fill:#F685B4;" d="M475.568,449.983c0.677,1.793,1.122,3.508,1.403,5.111c0.794,4.516,0.295,8.183,0.106,10.424 c0,0-0.909-0.843-2.289-2.402c-0.521-0.583-1.112-1.274-1.743-2.056c-2.061-2.555-4.583-6.115-6.764-10.452 c-0.864-1.703-1.667-3.528-2.374-5.459c-4.512-12.34-2.74-25.315-2.74-25.315s0.31,0.61,0.845,1.669 c1.596,3.179,5.195,10.378,8.354,16.967l0.002,0.005C472.632,443.187,474.664,447.594,475.568,449.983z"/>
          <path style="fill:#DE578E;" d="M476.972,455.095c0.794,4.516,0.295,8.183,0.106,10.424c0,0-0.909-0.843-2.289-2.402 c-0.726-5.345-2.424-18.495-2.424-18.495S475.386,450.004,476.972,455.095z"/>
          <path style="fill:#DB2852;" d="M486.946,418.244c0,0,0.096,0.293,0.24,0.85c-0.648,1.049-1.34,2.218-1.873,3.268 c-0.995,1.967-4.594,14.015-6.578,20.955C480.202,434.236,482.702,424.373,486.946,418.244z"/>
          <path style="fill:#FFFFFF;" d="M462.013,421.504c-0.079,0.646-0.16,1.325-0.243,2.025c-1.198,9.966,3.153,23.249,4.512,27.08 c-0.864-1.703-1.667-3.528-2.374-5.459c-4.512-12.34-2.74-25.315-2.74-25.315S461.478,420.445,462.013,421.504z"/>
          <path style="fill:#FFFFFF;" d="M444.586,466.199c-2.145,2.052-3.509,3.753-4.276,4.813c-0.659-0.058-1.272-0.145-1.833-0.268 C438.477,470.744,440.502,468.444,444.586,466.199z"/>
          <path style="fill:#FFFFFF;" d="M456.048,449.621c-8.429-1.7-15.643-0.138-18.563,0.694c-0.332-0.302-0.659-0.616-0.97-0.932 C436.515,449.383,444.834,446.015,456.048,449.621z"/>
        </g>
        <g>
          <path style="fill:#FCE8F2;" d="M436.762,484.753c0,0-22.895,14.382-39.335,13.014c-0.448-0.037-0.898-0.087-1.337-0.147 c0,0,4.542-7.741,15.629-11.719C417.904,483.674,426.14,482.621,436.762,484.753z"/>
          <path style="fill:#FCE8F2;" d="M435.706,484.635c0,0-28.477-1.956-40.452-13.543 C395.254,471.093,415.254,462.389,435.706,484.635z"/>
          <path style="fill:#F685B4;" d="M424.58,461.484c3.843,3.967,7.402,8.983,9.716,15.192c0,0,0.001,0.007,0.003,0.013 c0.836,2.24,1.507,4.634,1.969,7.194c0,0-0.433-0.202-1.204-0.616c-1.879-1.011-5.764-3.31-10.245-7.143 c-6.545-5.585-14.375-14.432-19.164-27.32C405.654,448.805,415.831,452.426,424.58,461.484z"/>
          <path style="fill:#DE578E;" d="M412.473,453.581c0,0,6.662,4.196,12.106,7.903c3.843,3.967,7.402,8.983,9.716,15.192 c0,0,0.001,0.007,0.003,0.013c0.482,2.873,0.689,5.427,0.764,6.578c-1.879-1.011-5.764-3.31-10.245-7.143 C420.831,468.764,412.473,453.581,412.473,453.581z"/>
          <path style="fill:#DE578E;" d="M436.051,485.339c0,0,31.912,8.164,46.257,16.046l1.175-1.248c0,0-24.627-12.05-47.341-16.041 L436.051,485.339z"/>
          <path style="fill:#F685B4;" d="M437.251,484.898c0,0-4.027,5.634-9.254,11.945c-4.96,6.001-11.009,12.622-15.713,15.608 c-0.558,0.356-1.097,0.661-1.616,0.905c0,0,0.204-3.058,2.072-7.327c2.558-5.871,8.257-14.025,20.872-19.652 C434.762,485.86,435.976,485.369,437.251,484.898z"/>
          <path style="fill:#DE578E;" d="M437.251,484.898c0,0-4.027,5.634-9.254,11.945c1.701-3.33,3.939-7.62,5.615-10.467 C434.762,485.86,435.976,485.369,437.251,484.898z"/>
          <path style="fill:#DE578E;" d="M417.084,442.193c0,0,0.254,0.174,0.709,0.528c3.521,2.742,19.047,16.3,19.583,42.682 c-0.169-0.223-6.102-8.322-11.515-18.33C421.487,458.98,417.455,449.638,417.084,442.193z"/>
          <path style="fill:#F685B4;" d="M427.413,474.288c1.63,1.008,3.027,2.096,4.228,3.196c3.383,3.096,5.222,6.307,6.439,8.198 c0,0-1.234-0.114-3.279-0.509c-0.769-0.144-1.657-0.332-2.635-0.567c-3.191-0.769-7.361-2.053-11.733-4.162 c-1.723-0.823-3.473-1.78-5.21-2.88c-11.1-7.031-17.604-18.397-17.604-18.397s0.618,0.295,1.688,0.808 c3.203,1.547,10.445,5.06,16.965,8.357l0.004,0.003C420.943,470.691,425.24,472.945,427.413,474.288z"/>
          <path style="fill:#DE578E;" d="M431.642,477.484c3.383,3.096,5.222,6.307,6.439,8.198c0,0-1.234-0.114-3.279-0.509 c-3.834-3.794-13.196-13.183-13.196-13.183S427.281,474.416,431.642,477.484z"/>
          <path style="fill:#F685B4;" d="M417.084,442.193c0,0,0.254,0.174,0.709,0.528c0.126,1.226,0.29,2.575,0.507,3.732 c0.41,2.166,4.902,13.911,7.561,20.621C421.487,458.98,417.455,449.638,417.084,442.193z"/>
          <path style="fill:#FFFFFF;" d="M399.307,459.976c0.332,0.56,0.681,1.148,1.041,1.753c5.126,8.63,16.672,16.507,20.085,18.716 c-1.723-0.823-3.473-1.78-5.21-2.88c-11.1-7.031-17.604-18.397-17.604-18.397S398.237,459.463,399.307,459.976z"/>
          <path style="fill:#FFFFFF;" d="M412.739,506.029c-0.449,2.935-0.494,5.115-0.456,6.422c-0.558,0.356-1.097,0.661-1.616,0.905 C410.667,513.356,410.871,510.298,412.739,506.029z"/>
          <path style="fill:#FFFFFF;" d="M411.719,485.901c-7.718,3.791-12.484,9.427-14.292,11.866c-0.448-0.037-0.898-0.087-1.337-0.147 C396.09,497.62,400.632,489.879,411.719,485.901z"/>
        </g>
      </g>
      <g>
        <path style="fill:#99C3C4;" d="M728.285,208.832c-0.009-0.031-0.014-0.044-0.014-0.044c10.817-17.27,30.44-11.171,35.975-7.097 c5.535,4.08,13.138,7.474,13.138,7.474c-0.014,0.017-0.028,0.039-0.048,0.055c-10.661,12.904-24.129,14.455-24.129,14.455 C735.281,226.021,728.663,209.788,728.285,208.832z"/>
        <path style="fill:#599AAB;" d="M728.285,208.832c10.636,1.035,38.484,3.357,49.052,0.389 c-10.661,12.904-24.129,14.455-24.129,14.455C735.281,226.021,728.663,209.788,728.285,208.832z"/>
        <path style="fill:#BFE3E8;" d="M767.144,210.633c0,0-37.041-0.805-45.102-3.677l-0.371,1.818 C721.671,208.775,757.351,211.815,767.144,210.633z"/>
      </g>
      <g>
        <path style="fill:#99C3C4;" d="M575.652,159.145c-0.015,0.012-0.021,0.017-0.021,0.017 c-11.995-2.218-12.92-14.484-11.872-18.462c1.052-3.979,1.267-8.959,1.267-8.959c0.012,0.004,0.028,0.007,0.041,0.014 c9.53,3.093,13.359,10.248,13.359,10.248C583.68,151.467,576.101,158.725,575.652,159.145z"/>
        <path style="fill:#599AAB;" d="M575.652,159.145c-1.766-6.148-6.605-22.16-10.584-27.389 c9.53,3.093,13.359,10.248,13.359,10.248C583.68,151.467,576.101,158.725,575.652,159.145z"/>
        <path style="fill:#BFE3E8;" d="M568.099,137.119c0,0,7.708,20.796,7.884,25.914l1.093-0.194 C577.076,162.84,570.913,142.31,568.099,137.119z"/>
      </g>
      <g>
        <path style="fill:#CADCA1;" d="M554.558,217.839c0.031-0.003,0.044-0.004,0.044-0.004c11.602-15.926-0.938-31.338-6.587-34.838 c-5.654-3.497-11.438-9.098-11.438-9.098c-0.01,0.018-0.025,0.039-0.032,0.063c-7.741,14.213-4.282,26.858-4.282,26.858 C536.614,217.751,553.563,217.844,554.558,217.839z"/>
        <path style="fill:#9CB85E;" d="M555.822,214.406c-4.759-9.172-16.871-33.325-18.013-43.876 c-7.741,14.213-4.282,26.858-4.282,26.858C537.878,214.318,554.828,214.411,555.822,214.406z"/>
        <path style="fill:#F8FFE8;" d="M540.212,180.185c0,0,14.062,32.948,19.541,39.147l-1.498,0.987 C558.255,220.32,542.678,189.398,540.212,180.185z"/>
      </g>
      <g style="clip-path:url(#SVGID_00000161622842633534598510000016454961924248138934_);">
        <g>
          <path style="fill: rgb(254, 243, 199);" d="M 498.174 103.41 C 498.162 103.429 498.158 103.437 498.158 103.437 C 489.931 104.931 484.493 100.953 481.35 96.518 C 479.25 93.555 478.175 90.387 477.978 88.513 C 477.489 83.832 475.7 78.421 475.7 78.421 C 475.715 78.42 475.733 78.417 475.75 78.42 C 487.193 77.861 494.189 83.958 494.189 83.958 C 503.642 91.944 498.483 102.777 498.174 103.41 Z"/>
          <path style="fill: rgb(253, 224, 71);" d="M498.174,103.41c-4.382-5.857-16.05-21.013-22.424-24.99c11.443-0.559,18.439,5.538,18.439,5.538 C503.642,91.944,498.483,102.777,498.174,103.41z"/>
          <path style="fill: rgb(253, 230, 138);" d="M481.165,82.924c0,0,16.675,19.107,18.94,24.508l1.09-0.651 C501.195,106.782,486.278,87.332,481.165,82.924z"/>
        </g>
        <g>
          <path style="fill:#99C3C4;" d="M542.538,122.495c-0.03-0.014-0.042-0.018-0.042-0.018c-6.085-19.655,11.511-30.649,18.275-32.2 c6.768-1.546,14.375-5.126,14.375-5.126c0.004,0.022,0.012,0.048,0.011,0.073c2.848,16.659-4.84,27.985-4.84,27.985 C560.298,128.469,543.518,122.837,542.538,122.495z"/>
          <path style="fill:#599AAB;" d="M542.538,122.495c7.8-7.455,27.926-27.231,32.618-37.271c2.848,16.659-4.84,27.985-4.84,27.985 C560.298,128.469,543.518,122.837,542.538,122.495z"/>
          <path style="fill:#BFE3E8;" d="M569.521,93.953c0,0-25.023,27.808-32.531,32.083l1.147,1.481 C538.136,127.517,563.972,102.223,569.521,93.953z"/>
        </g>
        <g/>
      </g>
      <g>
        <path style="fill: rgb(255, 255, 255);" d="M 794.55 444.486 C 775.791 457.488 718.017 214.698 741.73 200.82 L 741.73 200.835 C 729.832 167.767 703.77 145.322 677.796 134.199 C 663.532 128.088 649.293 125.387 637.439 126.204 C 628.189 126.846 621.177 129.493 615.846 133.005 L 615.851 132.987 C 615.851 132.987 583.252 141.838 574.309 163.597 C 571.118 171.363 570.098 178.71 570.135 185.037 C 568.978 186.343 567.973 187.693 567.177 189.087 C 559.019 203.363 552.391 234.464 528.938 224.267 C 528.938 224.267 527.049 233.366 526.689 247.622 C 521.269 248.682 514.99 250.022 508.282 251.542 C 508.282 251.542 508.269 251.542 508.229 251.555 C 508.176 251.568 508.045 251.608 507.86 251.647 C 477.21 258.588 438.144 269.059 433.85 272.286 C 430.478 274.828 428.094 284.614 426.685 292.32 C 426.672 292.359 426.672 292.373 426.672 292.373 C 425.684 297.852 425.184 302.278 425.184 302.278 C 429.683 311.914 440.944 328.345 454.253 346.325 C 446.008 351.82 440.47 356.65 438.277 359.164 C 438.264 359.177 438.264 359.177 438.264 359.177 C 437.698 359.822 437.355 360.323 437.25 360.626 C 435.893 364.59 433.852 381.634 433.852 381.634 C 441.764 390.05 476.043 411.385 510.682 429.899 C 510.159 430.246 509.653 430.602 509.126 430.948 C 509.112 430.962 509.088 430.977 509.068 430.991 C 509.053 431.001 509.039 431.011 509.024 431.02 C 506.568 432.637 504.081 434.236 501.566 435.807 C 500.644 436.413 499.709 436.979 498.774 437.559 C 498.774 437.559 498.751 437.577 498.716 437.604 C 498.714 437.606 498.713 437.606 498.711 437.608 C 498.594 437.7 498.302 437.932 497.868 438.306 C 496.723 439.29 494.613 441.236 492.248 444.039 C 492.177 444.123 492.107 444.207 492.036 444.292 C 491.741 444.645 491.444 445.008 491.144 445.387 C 491.089 445.456 491.034 445.528 490.979 445.598 C 490.718 445.931 490.456 446.275 490.193 446.628 C 490.077 446.784 489.961 446.941 489.844 447.1 C 489.611 447.42 489.377 447.747 489.144 448.082 C 489 448.288 488.858 448.496 488.715 448.708 C 488.501 449.024 488.288 449.346 488.076 449.675 C 487.944 449.88 487.812 450.087 487.681 450.298 C 487.476 450.627 487.272 450.962 487.07 451.302 C 486.909 451.573 486.751 451.846 486.593 452.124 C 486.397 452.469 486.202 452.818 486.011 453.174 C 485.888 453.403 485.766 453.634 485.645 453.868 C 485.443 454.258 485.245 454.654 485.051 455.057 C 484.929 455.308 484.809 455.562 484.691 455.818 C 484.494 456.244 484.302 456.676 484.114 457.115 C 484.019 457.339 483.925 457.564 483.832 457.792 C 483.626 458.295 483.427 458.805 483.237 459.325 C 483.179 459.483 483.122 459.641 483.065 459.801 C 482.871 460.349 482.687 460.908 482.511 461.474 C 482.45 461.67 482.391 461.866 482.333 462.063 C 482.138 462.723 481.951 463.39 481.785 464.073 C 477.702 480.722 483.813 501.348 483.813 501.348 L 527.581 501.348 L 533.192 501.348 L 543.558 501.348 L 576.96 501.348 L 593.095 501.348 L 654.789 501.348 L 705.407 499.896 C 708.724 499.896 720.651 448.536 719.612 434.249 C 735.507 458.669 767.249 481.842 789.733 490.553 L 792.792 483.559 C 792.792 483.559 763.693 468.605 737.669 428.22 C 761.607 452.92 790.072 465.771 790.072 465.771 L 794.55 444.486 Z M 590.264 349.029 C 590.341 349.375 590.437 349.715 590.509 350.063 C 590.524 350.135 590.54 350.206 590.555 350.278 C 590.805 351.518 591.018 352.768 591.198 354.025 C 591.21 354.107 591.221 354.19 591.233 354.273 C 591.596 356.878 591.814 359.509 591.895 362.142 C 591.895 362.142 587.795 366.475 580.573 373.392 C 575.795 369.71 569.583 364.638 562.626 358.81 C 572.362 355.402 581.844 352.035 590.264 349.029 Z M 520.518 281.389 C 522.201 280.542 523.774 279.745 525.223 279.007 C 524.416 284.479 523.406 288.207 522.564 289.529 C 520.78 292.333 521.545 295.392 529.447 300.746 C 531.724 302.289 536.995 304.106 543.742 305.833 L 543.739 305.834 C 543.739 305.834 552.925 310.236 562.568 315.89 C 553.745 316.758 544.498 317.526 534.795 318.228 C 533.596 318.32 532.411 318.412 531.226 318.531 C 530.528 318.597 529.817 318.663 529.119 318.742 C 525.338 319.159 521.647 319.723 518.032 320.387 C 505.951 309.789 495.618 300.615 490.269 295.854 C 500.874 291.112 512.025 285.655 520.518 281.389 Z"/>
        <g>
          <g>
            <path style="fill:#EAADA9;" d="M580.472,375.531l-65.501,53.528c0,0-25.039-30.096-49.893-62.208 c-20.205-26.119-40.291-53.581-46.692-67.292c0,0,11.209-17.847,25.486-20.903c9.602-2.068,22.444,3.635,29.82,7.573 c3.583,1.923,5.874,3.424,5.874,3.424S563.073,364.309,580.472,375.531z"/>
            <path style="fill:#E1787F;" d="M580.472,375.531l-65.501,53.528c0,0-25.039-30.096-49.893-62.208 c17.478-11.459,45.56-30.808,40.831-33.639c-6.796-4.083-58.467-28.898-58.467-28.898l26.25-18.084 c3.583,1.923,5.874,3.424,5.874,3.424S563.073,364.309,580.472,375.531z"/>
            <path style="fill:#EAADA9;" d="M527.998,243.423v27.923c0,0-5.822,3.069-14.278,7.323 c-17.571,8.825-46.521,22.76-58.454,24.881c-17.676,3.148-36.88-3.991-36.88-3.991s0.501-4.426,1.488-9.905 c0,0,0-0.013,0.013-0.053c1.409-7.705,3.793-17.492,7.165-20.034c4.294-3.227,43.36-13.698,74.01-20.64 c0.184-0.039,0.316-0.079,0.369-0.092c0.039-0.013,0.053-0.013,0.053-0.013C511.889,246.466,521.294,244.529,527.998,243.423z"/>
            <path style="fill:#FFFFFF;" d="M501.063,248.929c-5.558,1.462-65.079,17.149-70.098,20.35 c-5.11,3.253-10.721,19.322-11.077,20.323c1.409-7.705,3.793-17.492,7.165-20.034 C431.347,266.341,470.413,255.87,501.063,248.929z"/>
            <path style="fill:#E1787F;" d="M527.998,262.522v8.825c0,0-5.822,3.069-14.278,7.323l-42.478,16.135L527.998,262.522z"/>
            <path style="fill:#FFFFFF;" d="M439.575,273.697c0.222,1.104-0.791,2.24-2.263,2.536c-1.472,0.297-2.846-0.358-3.068-1.462 c-0.222-1.104,0.791-2.24,2.263-2.536C437.978,271.938,439.352,272.593,439.575,273.697z"/>
            <path style="fill:#FFFFFF;" d="M445.302,276.791c0.079,0.391-0.28,0.792-0.801,0.897c-0.521,0.105-1.007-0.127-1.086-0.517 c-0.079-0.391,0.28-0.792,0.801-0.897C444.738,276.168,445.224,276.4,445.302,276.791z"/>
          </g>
          <g>
            <path style="fill:#3D0F11;" d="M609.054,130.268l-1.317,4.663l-8.1,28.753l-32.125,39.514c0,0-3.741-7.692-4.149-19.112 c-0.25-6.704,0.658-14.712,4.149-23.208C576.455,139.12,609.054,130.268,609.054,130.268z"/>
            <path style="fill:#FFFFFF;" d="M609.054,130.268l-1.317,4.663c-9.418,2.2-19.098,5.677-26.026,11.156 c-18.703,14.791-17.386,36.708-17.386,36.708l-0.961,1.291c-0.25-6.704,0.658-14.712,4.149-23.208 C576.455,139.12,609.054,130.268,609.054,130.268z"/>
            <path style="fill:#3D0F11;" d="M632.694,286.945c0,0,16.06,60.113,39.684,77.108c21.289,15.316,39.684,34.415,39.684,34.415 s-12.746-112.568-28.042-129.194c-15.296-16.625-30.222-30.384-37.05-24.443C640.143,250.772,632.694,286.945,632.694,286.945z "/>
            <path style="fill:#3D0F11;" d="M 664.386 356.446 C 664.386 356.446 718.818 462.996 782.932 487.837 L 818.28 496.987 C 818.28 496.987 721.749 447.836 698.806 347.439 L 664.386 356.446 Z"/>
            <path style="fill:#3D0F11;" d="M706.456,398.759c0,0,12.744,57.387,45.375,82.084c0,0-40.788-24.602-53.025-79.491 L706.456,398.759z"/>
          </g>
          <g>
            <path style="fill:#EAADA9;" d="M707.892,486.671c-2.002,7.218-3.477,11.96-3.477,11.96H477.012c0,0-6.111-20.626-2.028-37.275 c3.042-12.486,11.064-21.14,14.897-24.696c1.278-1.199,2.094-1.818,2.094-1.818c0.935-0.58,1.87-1.146,2.792-1.752 c10.116-6.322,19.783-13.066,28.793-19.797c4.676-3.49,9.154-6.981,13.435-10.405c5.756-4.597,11.117-9.088,16.029-13.343 c3.662-3.161,7.06-6.191,10.181-9.022c13.698-12.434,21.891-21.1,21.891-21.1l8.509-3.675l58.876-25.434 c0,0,9.589,14.884,21.206,28.555c1.317,1.554,2.661,3.082,4.017,4.584c4.807,5.295,9.813,10.102,14.515,13.369 c17.702,12.328,24.433,27.423,26.132,49.524C719.522,441.638,712.383,470.431,707.892,486.671z"/>
            <path style="fill:#E1787F;" d="M641.561,381.445l-78.356-0.922c13.698-12.434,21.891-21.1,21.891-21.1l8.509-3.675 l24.894-4.952C618.498,350.796,626.888,369.525,641.561,381.445z"/>
            <path style="fill:#E1787F;" d="M666.679,486.5l-18.69,12.131H520.78c-8.035-16.425-21.469-43.702-30.9-61.971 c1.278-1.199,2.094-1.818,2.094-1.818c0.935-0.58,1.87-1.146,2.792-1.752c10.116-6.322,19.783-13.066,28.793-19.797 c0.461,0.079,0.711,0.132,0.711,0.132L666.679,486.5z"/>
            <path style="fill:#FFFFFF;" d="M707.892,486.671c-2.002,7.218-3.477,11.96-3.477,11.96H477.012c0,0-6.111-20.626-2.028-37.275 c4.07-16.662,16.991-26.514,16.991-26.514c23.498-14.436,44.782-31.242,61.049-45.296 c-2.687,17.175-8.785,76.697,32.085,93.213C630.997,501.304,675.951,500.237,707.892,486.671z"/>
            <path style="fill:#FFD6E0;" d="M650.913,496.734l-2.924,1.897H520.78c-8.035-16.425-21.469-43.702-30.9-61.971 c0.461-0.435,0.869-0.79,1.185-1.067c0.58-0.501,0.909-0.751,0.909-0.751c3.464-2.134,6.889-4.32,10.247-6.533 c0.039-0.026,0.079-0.053,0.105-0.079c2.45-1.607,4.86-3.227,7.231-4.873c0.026-0.013,0.053-0.04,0.079-0.053 c2.226-1.541,4.412-3.082,6.573-4.636c0.237-0.171,0.474-0.329,0.698-0.5c1.989-1.423,3.938-2.858,5.861-4.294 c0.263-0.198,0.527-0.382,0.79-0.58c0.461,0.079,0.711,0.132,0.711,0.132l27.317,14.014 c1.962,21.825,9.878,45.77,33.521,55.319C607.75,491.913,630.168,496.273,650.913,496.734z"/>
            <polygon style="fill:#FFFFFF;" points="536.757,498.63 526.391,498.63 508.965,463.055 &#9;&#9;&#9;&#9;&#9;"/>
            <path style="fill:#FFFFFF;" d="M586.294,498.63h-16.135c-9.655-4.281-20.284-11.077-26.435-21.588 C544.422,477.965,554.551,490.793,586.294,498.63z"/>
            <path style="fill:#FFFFFF;" d="M677.703,363.453c-80.134-11.723-129.988,59.824-129.988,59.824l-2.371-3.741 c44.69-65.027,109.177-62.933,128.341-60.667C675.003,360.424,676.346,361.952,677.703,363.453z"/>
          </g>
          <path style="fill:#EAADA9;" d="M585.109,364.138c0.342-12.236-2.042-24.815-8.588-35.009 c-6.559-10.195-39.58-26.013-39.58-26.013l97.455-37.551c2.503,20.877,11.512,47.404,18.084,64.75 c4.136,10.906,7.31,18.19,7.31,18.19L583.752,380.8c0,0,0.764-3.345,1.185-12.249 C585.003,367.207,585.069,365.745,585.109,364.138z"/>
          <g>
            <g>
              <path style="fill:#EAADA9;" d="M659.79,348.504l-34.324,14.581l-41.634,17.676l-0.079,0.039c0,0,0-0.013,0.013-0.039 c0.079-0.395,0.777-3.859,1.172-12.21c0.066-1.344,0.132-2.806,0.171-4.412c0.039-1.567,0.039-3.148-0.013-4.715 c-0.329-10.708-2.871-21.403-8.574-30.294c-6.559-10.195-39.58-26.013-39.58-26.013l97.455-37.551 c0.079,0.659,0.158,1.304,0.25,1.976c2.819,20.547,11.472,45.968,17.834,62.775c0.026,0.066,0.053,0.145,0.079,0.211 C656.655,341.312,659.79,348.504,659.79,348.504z"/>
              <path style="fill:#E1787F;" d="M625.466,363.085l-41.634,17.676h-0.066c0.079-0.395,0.777-3.859,1.172-12.21 c0.066-1.344,0.132-2.806,0.171-4.412c0.039-1.567,0.039-3.148-0.013-4.715l8.509-3.675l24.894-4.952 C618.498,350.796,620.922,356.222,625.466,363.085z"/>
              <path style="fill:#E1787F;" d="M585.109,364.138c0.342-12.236-2.042-24.815-8.588-35.009 c-6.559-10.195-39.58-26.013-39.58-26.013l97.455-37.551c0.079,0.659,0.158,1.304,0.25,1.976 c2.819,20.547,11.472,45.968,17.834,62.775c0.026,0.066,0.053,0.145,0.079,0.211c-11.867,9.641-39.448,29.912-67.622,38.026 C585.003,367.207,585.069,365.745,585.109,364.138z"/>
            </g>
            <g>
              <path style="fill:#EAADA9;" d="M598.109,162.15c0,0-29.572,9.942-37.729,24.218c-8.158,14.276-14.786,45.377-38.239,35.18 c0,0-2.549,12.237-2.294,30.591c0.255,18.355-2.294,31.866-4.079,34.67c-1.785,2.804-1.02,5.863,6.883,11.217 c7.903,5.354,51.75,14.021,68.831,10.707c17.08-3.314,35.69-25.493,46.397-40.279c10.707-14.786,26.003-45.632,20.904-67.046 C653.683,179.995,636.093,148.129,598.109,162.15z"/>
              <path style="fill:#5C171A;" d="M560.507,217.342c0,0,4.716,8.285,19.629,7.011l3.783,5.226l-4.803-3.442 C579.116,226.137,562.036,226.647,560.507,217.342z"/>
              <path style="fill:#5C171A;" d="M564.331,198.477c0,0,21.622-6.476,32.272,14.574c0,0-6.779-21.84-30.997-16.869 L564.331,198.477z"/>
              <path style="fill:#DB2852;" d="M549.119,267.22c-1.082,0.048-2.128,0.213-3.219,0.202c-1.119-0.012-2.24-0.136-3.351-0.267 c-1.948-0.23-3.893-0.464-5.839-0.7c-1.924-0.232-3.853-0.728-5.67-1.397c-1.888-0.696-3.521-1.694-5.162-2.844 c-0.078-0.055-0.143,0.058-0.093,0.121c2.556,3.258,6.9,4.568,10.724,5.608c2.055,0.559,4.216,0.895,6.33,1.151 c2.123,0.258,4.878,0.466,6.618-1.057C549.767,267.766,549.523,267.203,549.119,267.22z"/>
              <path style="fill:#EAA29D;" d="M588.844,256.593c-1.904,4.077-10.894,3.905-20.078-0.384 c-9.185-4.29-15.087-11.072-13.183-15.15c1.904-4.077,10.893-3.905,20.078,0.385 C584.846,245.733,590.748,252.516,588.844,256.593z"/>
              <path style="fill:#FFFFFF;" d="M523.623,288.301c0,0.749-0.607,1.355-1.355,1.355c-0.749,0-1.355-0.607-1.355-1.355 s0.607-1.355,1.355-1.355C523.016,286.945,523.623,287.552,523.623,288.301z"/>
              <path style="fill:#E1787F;" d="M590.727,158.701c0,0-3.41,54.35,30.41,84.601c0,0-23.945-31.15-22.772-62.712 C599.539,149.028,590.727,158.701,590.727,158.701z"/>
              <path style="fill:#E1787F;" d="M596.834,203.81c0,0,16.033,33.836,44.726,46.776l-43.194-56.4L596.834,203.81z"/>
              <path style="fill:#E1787F;" d="M590.036,155.777c0,0-16.825,22.774-18.695,42.318c0,0,8.838-23.113,25.493-37.22 L590.036,155.777z"/>
            </g>
            <g>
              <path style="fill:#EAADA9;" d="M633.544,252.395c0,0,16.825-6.288,24.728,3.357c7.903,9.645-7.393,36.412-39.769,32.078 L633.544,252.395z"/>
              <path style="fill:#E1787F;" d="M652.48,262.227c0,0-13.088-0.073-18.355,2.889c-5.267,2.962-3.569,10.367-1.359,11.217 c2.209,0.85,5.778-3.059,5.778-3.059s-3.388-2.308-1.184-5.063C639.564,265.456,647.721,262.397,652.48,262.227z"/>
            </g>
          </g>
          <g>
            <path style="fill:#EAADA9;" d="M717.243,435.132c-0.343,12.447-3.438,26.369-6.046,37.209c-1.422,5.953-2.7,10.985-3.306,14.33 c0,0-38.144,10.195-62.116,0c-23.959-10.195-40.278-18.071-79.278-30.702c-39-12.631-126.194-62.959-139.445-77.052 c0,0,37.723-23.037,59.139-20.863c21.416,2.173,146.979,22.062,166.288,25.118c19.309,3.056,51.816,12.131,61.365,31.295 C716.611,420.011,717.467,427.281,717.243,435.132z"/>
            <polygon style="fill:#E1787F;" points="523.623,365.073 643.996,383.938 491.549,373.231 &#9;&#9;&#9;&#9;&#9;"/>
            <path style="fill:#EAADA9;" d="M660.317,325.731c0,0-30.531,4.083-48.8,10.537c-18.256,6.454-101.867,37.025-126.682,42.649 c-24.815,5.611-57.782,0-57.782,0s2.041-17.044,3.398-21.008c0.105-0.303,0.448-0.803,1.014-1.449c0,0,0,0,0.013-0.013 c6.48-7.429,42.069-35.049,90.843-40.423c0.698-0.079,1.409-0.145,2.107-0.211c1.185-0.119,2.371-0.211,3.569-0.303 c56.083-4.057,97.31-10.26,125.641-25.855l4.939,26.698l1.278,6.902L660.317,325.731z"/>
            <path style="fill:#FFFFFF;" d="M522.321,316.023c-41.477,4.755-89.763,39.646-90.843,40.423 C437.959,349.017,473.548,321.397,522.321,316.023z"/>
            <path style="fill:#FFFFFF;" d="M445.004,356.931c0.394,1.382-0.407,2.82-1.788,3.214c-1.381,0.394-2.82-0.407-3.214-1.788 c-0.394-1.381,0.407-2.82,1.788-3.214C443.171,354.749,444.61,355.55,445.004,356.931z"/>
            <path style="fill:#FFFFFF;" d="M457.195,348.658c0.254,0.892-0.263,1.821-1.155,2.075c-0.892,0.254-1.821-0.263-2.075-1.154 c-0.254-0.892,0.263-1.821,1.155-2.075C456.011,347.249,456.94,347.766,457.195,348.658z"/>
            <path style="fill:#E1787F;" d="M711.198,472.341c1.172-9.879,4.57-45.046-4.742-57.875c0,0,7.705,7.547,10.787,20.666 C716.901,447.578,713.806,461.5,711.198,472.341z"/>
            <polygon style="fill:#E1787F;" points="659.856,323.254 659.342,323.333 632.697,327.403 657.024,317.011 658.578,316.353 &#10;&#9;&#9;&#9;&#9;&#9;&#9;&#9;&#9;&#9;&#9;&#9;"/>
          </g>
          <g>
            <path style="fill:#5C171A;" d="M601.336,137.091l-0.632,4.175l-2.331,15.529c0,0-27.475,20.086-31.861,44.269 c0.184-1.212,2.239-14.041,11.182-31.15c0,0,0.013-0.026,0.04-0.066C582.935,159.891,590.483,148.497,601.336,137.091z"/>
            <path style="fill:#FFFFFF;" d="M601.336,137.091l-0.632,4.175l-0.303,0.751c-7.942,6.349-21.812,26.58-22.668,27.831 C582.935,159.891,590.483,148.497,601.336,137.091z"/>
            <path style="fill:#5C171A;" d="M 803.283 318.31 C 803.283 318.31 785.091 310.009 769.487 291.225 C 755.999 274.987 745.771 249.273 734.932 234.085 L 734.932 198.101 C 734.932 198.101 753.653 289.584 803.283 318.31 Z"/>
            <path style="fill:#3D0F11;" d="M 777.87 328.524 L 777.217 328.071 C 777.217 328.071 754.062 301.945 744.233 278.385 C 737.041 261.143 744.812 247.928 734.932 234.085 L 734.932 208.638 C 736.263 208.638 730.181 260.745 748.001 298.521 C 753.979 311.195 766.703 321.242 777.87 328.524 Z"/>
            <path style="fill:#5C171A;" d="M 736.369 202.342 C 739.832 211.054 739.101 250.339 752.566 295.005 C 758.081 313.299 757.798 342.334 763.548 361.755 C 784.301 431.855 817.215 484.427 820.858 487.537 L 802.246 477.798 C 802.246 477.798 727.531 437.897 706.457 390.309 C 685.383 342.721 682.327 307.198 681.985 298.031 C 681.642 288.851 664.019 257.015 641.562 250.588 C 641.562 250.588 611.624 232.978 597.978 201.393 C 595.146 194.847 593.025 187.708 592.011 180.003 C 591.023 172.535 591.076 164.527 592.551 156.005 C 592.564 155.926 592.577 155.86 592.591 155.781 C 592.591 155.781 596.292 125.869 630.643 123.485 C 642.497 122.668 656.735 125.368 671 131.48 C 698.067 143.071 722.663 167.866 736.369 202.342 Z"/>
            <path style="fill:#3D0F11;" d="M 827.146 459.989 L 787.749 441.77 C 775.065 436.027 743.006 419.919 725.831 396.764 C 704.085 367.484 684.697 336.123 688.095 293.198 C 691.493 250.273 691.164 213.051 691.164 213.051 C 691.164 213.051 714.029 252.934 710.091 286.824 C 706.166 320.701 720.733 377.39 736.368 395.408 C 748.749 409.671 815.608 453.166 827.146 459.989 Z"/>
            <path style="fill:#5C171A;" d="M620.276,248.81c-20.126-17.966-27.041-41.213-28.937-59.969c0-0.013,0-0.026,0-0.026 c-1.752-17.412,0.83-30.953,1.212-32.81c0.013-0.079,0.026-0.145,0.04-0.224l2.595,3.122l1.646,1.976 c-2.134,15.252-1.238,28.845,1.146,40.515C604.023,230.91,619.67,248.152,620.276,248.81z"/>
            <path style="fill:#FFFFFF;" d="M670.999,131.48c-7.415-1.883-15.105-3.565-21.904-4.768 c-23.029-4.076-41.944,3.726-50.221,17.508c-7.53,12.537-7.508,44.015-7.535,44.595c-1.752-17.412,0.83-30.953,1.212-32.81 c0.013-0.079,0.026-0.145,0.04-0.224c0,0,3.701-29.912,38.052-32.296C642.496,122.669,656.734,125.369,670.999,131.48z"/>
            <g>
              <path style="fill:#E1787F;" d="M660.322,325.729c0,0,22.017,8.245,25.864,9.804c3.847,1.559,5.836-10.808,5.836-10.808 L660.322,325.729z"/>
              <path style="fill:#EAADA9;" d="M709.275,315.207c0,0-3.662,7.481-7.837,11.67c-0.935,0.935-1.897,1.712-2.845,2.2 c-5.203,2.674-29.767-2.634-38.276-3.345c0,0-0.382-0.883-0.975-2.397c-0.619-1.541-1.449-3.741-2.318-6.322 c-2.792-8.245-5.953-20.402-3.385-27.357c0,0,27.159-18.44,34.272-19.77c7.126-1.344,16.714,1.791,20.271,5.967 c3.556,4.162,1.91,10.972,1.91,10.972s0.961,6.48,1.633,11.657c0.066,0.527,0.132,1.041,0.184,1.528 C712.554,305.341,709.275,315.207,709.275,315.207z"/>
              <path style="fill:#E1787F;" d="M709.275,315.207c0,0-3.662,7.481-7.837,11.67c-5.018,1.33-41.121-3.688-41.121-3.688 l-0.975,0.145l-26.646,4.07l24.327-10.392l6.862-2.924c0,0,13-3.056,19.875-3.319c6.375-0.237,25.17-10.721,27.963-12.289 c0.066,0.527,0.132,1.041,0.184,1.528C712.554,305.341,709.275,315.207,709.275,315.207z"/>
            </g>
            <path style="fill:#5C171A;" d="M670.084,227.67c0,0,4.929,18.862,2.294,70.357c-2.634,51.495,24.558,80.387,48.011,100.442 c0,0-34.33-50.986-28.552-97.553c5.778-46.567,6.118-72.398-0.68-87.864C684.36,197.585,670.084,227.67,670.084,227.67z"/>
            <path style="fill:#3D0F11;" d="M 742.823 324.729 C 745.043 349.147 766.268 380.215 790.694 401.751 C 811.909 420.455 824.659 429.195 824.659 429.195 C 809.604 423.294 745.404 395.591 737.383 364.823 C 726.859 324.413 734.314 270.582 722.473 242.606 C 723.395 244.397 738.213 274.033 742.823 324.729 Z"/>
            <path style="fill:#FFFFFF;" d="M602.103,192.317c0,0-8.871-34.33,6.951-53.535 C609.054,138.782,598.534,157.986,602.103,192.317z"/>
            <path style="fill:#FFFFFF;" d="M676.173,293.199c0,0-6.684,45.617,21.525,75.352 C697.698,368.551,668.665,348.024,676.173,293.199z"/>
          </g>
        </g>
      </g>
      <g>
        <g>
          <path style="fill:#00647D;" d="M700.904,189.547c0,0,38.006,3.852,60.371-12.44c0,0-16.33,17.098-59.917,13.822 L700.904,189.547z"/>
          <path style="fill:#00647D;" d="M753.949,182.011c0,0,15.065-13.817,19.219-12.721 C777.322,170.386,767.738,177.223,753.949,182.011z"/>
          <path style="fill:#00647D;" d="M748.245,184.486c0,0,18.92-5.662,18.624-1.221 C766.574,187.706,748.245,184.486,748.245,184.486z"/>
          <path style="fill:#00647D;" d="M749.151,184.057c0,0,4.682-14.674,8.116-14.258 C760.701,170.217,753.842,179.534,749.151,184.057z"/>
          <path style="fill:#00647D;" d="M743.085,186.703c0,0,18.927-0.299,18.556,3.512 C761.269,194.027,750.201,190.124,743.085,186.703z"/>
          <path style="fill:#00647D;" d="M743.095,186.255c0,0,2.98-13.959,6.127-14.337S749.617,178.383,743.095,186.255z"/>
          <path style="fill:#00647D;" d="M734.767,188.152c0,0,21.844,3.244,20.829,8.602 C754.581,202.111,734.767,188.152,734.767,188.152z"/>
          <path style="fill:#00647D;" d="M735.482,188.257c0,0,4.944-15.153,7.753-15.682 C746.045,172.045,747.396,175.841,735.482,188.257z"/>
          <path style="fill:#00647D;" d="M727.875,189.237c0,0,20.551,7.358,19.964,12.026 C747.251,205.931,737.203,197.244,727.875,189.237z"/>
          <path style="fill:#00647D;" d="M721.747,189.783c0,0,16.252,8.77,16.903,12.586c0.651,3.816-1.292,4.114-5.272,0.762 C729.399,199.78,721.747,189.783,721.747,189.783z"/>
          <path style="fill:#00647D;" d="M714.416,190.41c0,0,17.096,11.029,16.285,14.609c-0.811,3.58-4.505,0.794-7.828-2.612 C719.55,199,714.416,190.41,714.416,190.41z"/>
          <path style="fill:#00647D;" d="M707.402,190.488c0,0,17.679,12.512,15.735,15.886c-1.944,3.375-5.009-0.057-6.986-2.179 C714.174,202.073,707.402,190.488,707.402,190.488z"/>
          <path style="fill:#00647D;" d="M707.717,190.798c0,0,4.873-18.307,10.001-19.105 C722.846,170.894,718.756,178.546,707.717,190.798z"/>
          <path style="fill:#00647D;" d="M714.218,190.259c0,0,6.366-19.235,11.028-18.107 C729.908,173.28,722.997,182.794,714.218,190.259z"/>
          <path style="fill:#00647D;" d="M721.563,190.145c0,0,8.703-19.583,12.846-18.058 C738.552,173.612,726.212,187.612,721.563,190.145z"/>
          <path style="fill:#00647D;" d="M728.761,189.705c0,0,7.43-17.303,10.26-17.133 C741.851,172.741,737.287,180.442,728.761,189.705z"/>
        </g>
      </g>
      <g style="clip-path:url(#SVGID_00000161622842633534598510000016454961924248138934_);">
        <g>
          <path style="fill:#DE6A7C;" d="M741.859,369.838c0,0-8.306,5.12-12.598,2.813c-4.292-2.306-2.564-5.105,0.135-6.733 C732.094,364.291,741.859,369.838,741.859,369.838z"/>
          <path style="fill:#DE6A7C;" d="M741.859,369.848c0,0-8.343-5.059-8.247-9.931c0.096-4.872,3.375-4.609,6.054-2.949 C742.345,358.628,741.859,369.848,741.859,369.848z"/>
          <path style="fill:#DE6A7C;" d="M741.859,369.848c0,0-0.177-9.755,3.993-12.276c4.171-2.52,5.7,0.393,5.726,3.544 C751.605,364.268,741.859,369.848,741.859,369.848z"/>
          <path style="fill:#DE6A7C;" d="M741.859,369.848c0,0,8.154-5.359,12.511-3.179c4.358,2.18,2.712,5.029,0.061,6.734 C751.781,375.108,741.859,369.848,741.859,369.848z"/>
          <path style="fill:#DE6A7C;" d="M741.859,369.848c0,0,8.735,4.349,9.043,9.212c0.309,4.863-2.981,4.874-5.788,3.442 C742.306,381.069,741.859,369.848,741.859,369.848z"/>
          <path style="fill:#DE6A7C;" d="M741.859,369.848c0,0,0.434,9.748-3.669,12.376c-4.103,2.629-5.708-0.243-5.817-3.392 C732.263,375.682,741.859,369.848,741.859,369.848z"/>
        </g>
        <g>
          <path style="fill:#DE6A7C;" d="M728.739,235.848c0,0-5.701,2.549-8.231,0.724c-2.529-1.825-1.197-3.455,0.653-4.261 C723.011,231.507,728.739,235.848,728.739,235.848z"/>
          <path style="fill:#DE6A7C;" d="M728.739,235.855c0,0-4.868-3.913-4.396-6.995c0.471-3.083,2.53-2.641,4.09-1.361 C729.992,228.777,728.739,235.855,728.739,235.855z"/>
          <path style="fill:#DE6A7C;" d="M728.739,235.855c0,0,0.709-6.205,3.567-7.453c2.858-1.248,3.583,0.729,3.335,2.731 C735.392,233.135,728.739,235.855,728.739,235.855z"/>
          <path style="fill:#DE6A7C;" d="M728.739,235.855c0,0,5.625-2.714,8.206-0.964c2.581,1.75,1.297,3.419-0.528,4.278 C734.591,240.028,728.739,235.855,728.739,235.855z"/>
          <path style="fill:#DE6A7C;" d="M728.739,235.855c0,0,5.176,3.495,4.962,6.606s-2.302,2.842-3.963,1.697 C728.078,243.012,728.739,235.855,728.739,235.855z"/>
          <path style="fill:#DE6A7C;" d="M728.739,235.855c0,0-0.546,6.221-3.37,7.544c-2.825,1.322-3.601-0.635-3.405-2.642 C722.159,238.749,728.739,235.855,728.739,235.855z"/>
        </g>
        <g>
          <path style="fill:#DE6A7C;" d="M638.86,174.635c0,0-5.701,2.549-8.231,0.724c-2.529-1.825-1.197-3.455,0.652-4.261 C633.131,170.294,638.86,174.635,638.86,174.635z"/>
          <path style="fill:#DE6A7C;" d="M638.859,174.642c0,0-4.868-3.913-4.396-6.996c0.471-3.083,2.53-2.641,4.09-1.361 C640.112,167.564,638.859,174.642,638.859,174.642z"/>
          <path style="fill:#DE6A7C;" d="M638.859,174.642c0,0,0.709-6.205,3.567-7.453c2.858-1.248,3.583,0.729,3.335,2.731 C645.513,171.922,638.859,174.642,638.859,174.642z"/>
          <path style="fill:#DE6A7C;" d="M638.859,174.642c0,0,5.625-2.714,8.206-0.964c2.581,1.751,1.297,3.419-0.528,4.278 C644.711,178.815,638.859,174.642,638.859,174.642z"/>
          <path style="fill:#DE6A7C;" d="M638.859,174.642c0,0,5.176,3.495,4.962,6.606c-0.214,3.112-2.302,2.842-3.962,1.697 C638.198,181.799,638.859,174.642,638.859,174.642z"/>
          <path style="fill:#DE6A7C;" d="M638.859,174.642c0,0-0.546,6.221-3.37,7.544c-2.825,1.322-3.601-0.635-3.406-2.642 C632.279,177.536,638.859,174.642,638.859,174.642z"/>
        </g>
        <g transform="matrix(1, 0, 0, 1, 58.375638, -74.23861)">
          <path style="fill:#DE6A7C;" d="M117.919,409.586c0,0-3.482,4.083-6.119,3.601c-2.636-0.482-2.205-2.239-1.067-3.547 C111.871,408.332,117.919,409.586,117.919,409.586z"/>
          <path style="fill:#DE6A7C;" d="M117.921,409.591c0,0-5.222-1.239-5.994-3.805c-0.773-2.566,0.988-2.983,2.671-2.566 C116.28,403.636,117.921,409.591,117.921,409.591z"/>
          <path style="fill:#DE6A7C;" d="M117.921,409.591c0,0-1.741-5.076,0.016-7.1c1.757-2.024,3.049-0.757,3.596,0.888 C122.079,405.024,117.921,409.591,117.921,409.591z"/>
          <path style="fill:#DE6A7C;" d="M117.921,409.591c0,0,3.362-4.183,6.011-3.778c2.649,0.405,2.269,2.174,1.17,3.514 C124.003,410.668,117.921,409.591,117.921,409.591z"/>
          <path style="fill:#DE6A7C;" d="M117.921,409.591c0,0,5.306,0.801,6.29,3.294c0.983,2.493-0.737,3.055-2.448,2.779 C120.051,415.388,117.921,409.591,117.921,409.591z"/>
          <path style="fill:#DE6A7C;" d="M117.921,409.591c0,0,1.874,5.029,0.17,7.098c-1.704,2.069-3.029,0.837-3.618-0.793 C113.884,414.266,117.921,409.591,117.921,409.591z"/>
        </g>
        <g>
          <path style="fill:#DE6A7C;" d="M710.614,142.593c0,0-7.516-2.585-8.281-6.48c-0.765-3.895,1.89-4.252,4.31-3.394 C709.062,133.578,710.614,142.593,710.614,142.593z"/>
          <path style="fill:#DE6A7C;" d="M710.608,142.598c0,0-1.125-7.868,1.993-10.324c3.118-2.456,4.647-0.256,4.985,2.289 C717.924,137.108,710.608,142.598,710.608,142.598z"/>
          <path style="fill:#DE6A7C;" d="M710.608,142.598c0,0,6.051-5.152,9.793-3.828c3.742,1.324,2.698,3.792,0.727,5.437 C719.157,145.852,710.608,142.598,710.608,142.598z"/>
          <path style="fill:#DE6A7C;" d="M710.608,142.598c0,0,7.587,2.365,8.466,6.236c0.878,3.871-1.766,4.306-4.209,3.518 C712.422,151.564,710.608,142.598,710.608,142.598z"/>
          <path style="fill:#DE6A7C;" d="M710.608,142.598c0,0,1.774,7.747-1.129,10.454c-2.903,2.707-4.609,0.641-5.158-1.867 C703.773,148.678,710.608,142.598,710.608,142.598z"/>
          <path style="fill:#DE6A7C;" d="M710.608,142.598c0,0-5.914,5.309-9.689,4.084c-3.775-1.226-2.796-3.72-0.869-5.416 C701.976,139.57,710.608,142.598,710.608,142.598z"/>
        </g>
        <g>
          <path style="fill:#99C3C4;" d="M702.587,179.702c0.007,0.019,0.009,0.027,0.009,0.027c11.66,4.975,19.513-5.113,20.892-9.16 c1.377-4.05,4.053-8.485,4.053-8.485c-0.013-0.004-0.028-0.01-0.044-0.011c-10.029-2.801-17.458,1.193-17.458,1.193 C700.051,168.439,702.44,179.08,702.587,179.702z"/>
          <path style="fill:#599AAB;" d="M702.587,179.702c5.063-4.308,18.459-15.389,24.91-17.629 c-10.029-2.801-17.458,1.193-17.458,1.193C700.051,168.439,702.44,179.08,702.587,179.702z"/>
          <path style="fill:#BFE3E8;" d="M721.789,164.974c0,0-18.628,13.574-21.724,17.904l-0.835-0.796 C699.23,182.082,716.369,167.851,721.789,164.974z"/>
        </g>
        <g>
          <path style="fill:#99C3C4;" d="M701.318,185.483c-0.009-0.02-0.013-0.028-0.013-0.028c5.823-12.71,19.714-10.306,23.842-8.027 c4.128,2.283,9.602,3.916,9.602,3.916c-0.008,0.013-0.016,0.029-0.028,0.042c-6.104,9.727-15.129,11.979-15.129,11.979 C707.606,196.554,701.661,186.1,701.318,185.483z"/>
          <path style="fill:#599AAB;" d="M701.318,185.483c7.327-0.242,26.478-1.139,33.403-4.098 c-6.104,9.727-15.129,11.979-15.129,11.979C707.606,196.554,701.661,186.1,701.318,185.483z"/>
          <path style="fill:#BFE3E8;" d="M727.913,183.252c0,0-25.27,2.746-31.008,1.51l-0.091,1.27 C696.814,186.032,721.357,184.927,727.913,183.252z"/>
        </g>
        <g>
          <path style="fill:#FCE8F2;" d="M673.351,157.353c0,0-18.307-7.095-24.642-17.262c-0.173-0.277-0.339-0.561-0.495-0.843 c0,0,6.479-0.713,13.605,4.019C665.8,145.903,669.985,150.242,673.351,157.353z"/>
          <path style="fill:#FCE8F2;" d="M672.962,156.687c0,0-11.214-17.432-9.661-29.433 C663.301,127.255,677.046,135.126,672.962,156.687z"/>
          <path style="fill:#F685B4;" d="M681.618,140.165c-0.643,3.959-2.021,8.208-4.633,12.249c0,0-0.003,0.004-0.006,0.008 c-0.942,1.458-2.045,2.888-3.335,4.267c0,0-0.07-0.34-0.164-0.968c-0.226-1.533-0.573-4.793-0.284-9.065 c0.413-6.235,2.169-14.632,7.597-23.012C680.792,123.643,683.098,131.141,681.618,140.165z"/>
          <path style="fill:#DE578E;" d="M680.969,129.686c0,0,0.446,5.7,0.649,10.479c-0.643,3.959-2.021,8.208-4.633,12.249 c0,0-0.003,0.004-0.006,0.008c-1.464,1.527-2.862,2.756-3.499,3.299c-0.226-1.533-0.573-4.793-0.284-9.065 C675.752,141.14,680.969,129.686,680.969,129.686z"/>
          <path style="fill:#DE578E;" d="M672.702,157.193c0,0,9.089,22.126,10.721,33.9l1.236,0.143c0,0-3.665-19.569-11.194-34.529 L672.702,157.193z"/>
          <path style="fill:#F685B4;" d="M673.479,157.701c0,0-5.028,0.099-10.971-0.208c-5.646-0.285-12.127-0.936-15.906-2.38 c-0.449-0.171-0.861-0.352-1.228-0.549c0,0,1.869-1.208,5.166-1.972c4.529-1.057,11.749-1.275,20.499,3.63 C671.839,156.669,672.651,157.163,673.479,157.701z"/>
          <path style="fill:#DE578E;" d="M673.479,157.701c0,0-5.028,0.099-10.971-0.208c2.677-0.454,6.146-1.011,8.531-1.27 C671.839,156.669,672.651,157.163,673.479,157.701z"/>
          <path style="fill:#DE578E;" d="M689.601,127.431c0,0,0.009,0.223,0,0.642c-0.07,3.24-1.23,18.163-16.362,29.92 c0.057-0.195,2.199-7.164,5.679-14.658C681.734,137.278,685.426,130.877,689.601,127.431z"/>
          <path style="fill:#F685B4;" d="M675.391,147.369c0.12,1.387,0.092,2.673-0.027,3.849c-0.335,3.313-1.408,5.777-1.981,7.306 c0,0-0.469-0.768-1.126-2.13c-0.25-0.51-0.526-1.109-0.813-1.781c-0.936-2.192-1.997-5.177-2.666-8.638 c-0.268-1.361-0.47-2.795-0.583-4.283c-0.72-9.514,3.077-18.233,3.077-18.233s0.096,0.488,0.262,1.333 c0.488,2.537,1.584,8.278,2.492,13.506l0,0.003C674.678,142.041,675.23,145.521,675.391,147.369z"/>
          <path style="fill:#DE578E;" d="M675.363,151.218c-0.335,3.313-1.408,5.777-1.981,7.306c0,0-0.469-0.768-1.126-2.13 c0.547-3.878,1.953-13.404,1.953-13.404S675.259,147.348,675.363,151.218z"/>
          <path style="fill:#DB2852;" d="M689.601,127.431c0,0,0.009,0.223,0,0.642c-0.659,0.605-1.374,1.286-1.953,1.914 c-1.083,1.179-5.975,8.889-8.729,13.348C681.734,137.278,685.426,130.877,689.601,127.431z"/>
          <path style="fill:#FFFFFF;" d="M671.533,124.792c-0.183,0.436-0.373,0.894-0.57,1.367c-2.802,6.729-2.381,16.87-2.187,19.816 c-0.268-1.361-0.47-2.795-0.583-4.283c-0.72-9.514,3.077-18.233,3.077-18.233S671.368,123.947,671.533,124.792z"/>
          <path style="fill:#FFFFFF;" d="M650.54,152.592c-1.904,1.012-3.193,1.931-3.938,2.52c-0.449-0.171-0.861-0.352-1.228-0.549 C645.374,154.564,647.243,153.356,650.54,152.592z"/>
          <path style="fill:#FFFFFF;" d="M661.819,143.267c-5.556-2.851-10.906-3.181-13.11-3.176c-0.173-0.277-0.339-0.561-0.495-0.843 C648.215,139.248,654.693,138.535,661.819,143.267z"/>
        </g>
        <g>
          <g>
            <path style="fill:#FFFFFF;" d="M689.915,177.247l-0.223-0.102l-0.003-0.002l-0.759-0.343l-0.997-0.45 c0,0-0.789-1.019-1.923-2.505c-0.693-0.907-1.512-1.986-2.36-3.111c-2.549-3.39-5.336-7.197-5.583-7.958 c-0.464-1.425,5.2-7.56,8.942-7.66c3.741-0.098,8.082,2.4,8.476,5.738c-0.001,0.003,0.002,0.004,0,0.007 c0.175,1.522-0.955,5.041-2.245,8.428c-0.74,1.942-1.53,3.844-2.156,5.303l-0.001,0.002 C690.398,176.187,689.915,177.247,689.915,177.247z"/>
            <path style="fill:#FFFFFF;" d="M710.82,179.203c-0.838,0.486-3.773,0.458-7.162,0.22c-2.262-0.162-4.727-0.416-6.903-0.674 c-0.003-0.001-0.01-0.002-0.013-0.003c-3.268-0.387-5.884-0.778-6.183-0.87c-0.006-0.003-0.016-0.005-0.021-0.008 c-0.365-0.117-0.648-0.427-0.846-0.723l-0.003-0.002c-0.232-0.34-0.349-0.66-0.349-0.66c0.062-0.03,0.73-0.782,1.742-1.89 l0.001-0.002c1.133-1.243,2.696-2.939,4.318-4.575c1.692-1.715,3.449-3.371,4.844-4.389c0.915-0.669,1.673-1.065,2.16-1.023 c2.56,0.221,9.055,4.259,9.868,6.967c0.392,1.302,0.591,2.82,0.442,4.187C712.548,177.231,711.983,178.531,710.82,179.203z"/>
            <path style="fill:#FFFFFF;" d="M712.142,193.783c-0.124,0.061-0.283,0.126-0.473,0.195c-2.246,0.831-8.67,2.217-10.142,1.771 c-0.664-0.202-2.754-3.249-4.973-6.744c-2.556-4.027-5.283-8.647-6.183-10.179c0,0-0.003-0.001-0.002-0.004 c-0.195-0.334-0.306-0.523-0.306-0.523c0.009-0.018,0.029-0.041,0.053-0.068c0.082-0.089,0.242-0.219,0.421-0.363 c0.415-0.327,0.942-0.701,0.942-0.701s2.218,0.628,5.263,1.579c0.003,0.001,0.01,0.002,0.013,0.003 c2.107,0.656,4.61,1.465,7.049,2.322c3.107,1.094,6.107,2.269,8.045,3.307c1.112,0.595,1.875,1.146,2.104,1.616 C715.346,188.831,713.745,193,712.142,193.783z"/>
            <path style="fill:#FFFFFF;" d="M695.887,196.305c-1.178,2.099-6.843,1.458-9.927,0.457c-0.753-0.245-1.707-0.869-2.708-1.699 c-3.092-2.554-6.648-7.026-6.179-8.063c0.084-0.183,0.356-0.489,0.769-0.879c0.935-0.895,2.587-2.231,4.334-3.589 c3.127-2.431,6.558-4.931,6.744-5.068c0.006-0.004,0.01-0.005,0.01-0.005l1.053,0.46c0,0,0.047,0.109,0.135,0.313 c0.063,0.148,0.148,0.349,0.253,0.59c-0.001,0.003,0.002,0.004,0.002,0.004c0.802,1.885,2.669,6.38,4.04,10.368 C695.551,192.514,696.346,195.486,695.887,196.305z"/>
            <path style="fill:#FFFFFF;" d="M688.929,177.459c0,0-0.004,0.001-0.01,0.005c-0.211,0.098-3.969,1.812-7.701,3.233 c-3.183,1.21-6.345,2.208-7.264,1.808c-0.891-0.385-2.414-1.797-3.785-3.474c-1.764-2.163-3.268-4.772-2.833-6.215 c0.774-2.568,2.995-8.109,5.565-7.546c0.126,0.026,0.281,0.08,0.455,0.15c1.759,0.719,5.856,3.523,9.408,6.066 c1.176,0.844,2.293,1.658,3.247,2.358c1.736,1.275,2.923,2.175,2.923,2.175l-0.003,0.78L688.929,177.459z"/>
          </g>
          <path style="fill:#FCE8F2;" d="M702.944,184.621c-1.23,2.378-3.586,3.884-6.39,4.384c-2.556-4.027-5.283-8.647-6.183-10.179 c0.802,1.885,2.669,6.38,4.04,10.368c-2.161,0.002-4.473-0.54-6.668-1.675c-2.41-1.246-4.313-3.015-5.568-4.986 c3.127-2.431,6.558-4.931,6.744-5.068c-0.211,0.098-3.969,1.812-7.701,3.233c-1.01-2.439-1.053-5.032,0.099-7.259 c0.38-0.736,0.867-1.387,1.445-1.951c1.176,0.844,2.293,1.658,3.247,2.358c-0.693-0.907-1.512-1.986-2.36-3.111 c2.453-1.798,6.005-2.347,9.591-1.445c-0.74,1.942-1.53,3.844-2.156,5.303c1.133-1.243,2.696-2.939,4.318-4.575 c0.376,0.158,0.751,0.332,1.12,0.523c3.925,2.029,6.509,5.447,7.136,8.883c-2.262-0.162-4.727-0.416-6.903-0.674 c2.107,0.656,4.61,1.465,7.049,2.322C703.797,182.301,703.52,183.507,702.944,184.621z"/>
          <g>
            <polygon style="fill:#FCC7E2;" points="689.028,178.695 686.274,192.943 689.741,178.386 &#9;&#9;&#9;&#9;&#9;"/>
            <polygon style="fill:#FCC7E2;" points="692.038,178.049 707.435,187.535 691.724,178.479 &#9;&#9;&#9;&#9;&#9;"/>
            <path style="fill:#FCC7E2;" d="M702.196,171.611c-0.288,0.021-11.341,4.979-11.341,4.979l0.624,0.577L702.196,171.611z"/>
            <polygon style="fill:#FCC7E2;" points="687.501,162.91 688.935,176.02 689.582,176.017 &#9;&#9;&#9;&#9;&#9;"/>
            <polygon style="fill:#FCC7E2;" points="674.506,173.05 688.19,176.567 688.565,177.27 &#9;&#9;&#9;&#9;&#9;"/>
          </g>
          <path style="fill:#DE578E;" d="M692.646,178.659c-0.62,1.199-2.346,1.542-3.855,0.761c-0.776-0.401-1.342-1.022-1.624-1.693 c-0.267-0.631-0.284-1.312,0.016-1.892c0.62-1.199,2.348-1.54,3.855-0.761c0.333,0.172,0.628,0.383,0.878,0.625 C692.8,176.543,693.129,177.724,692.646,178.659z"/>
          <path style="fill:#F685B4;" d="M691.903,177.599c-0.62,1.199-2.347,1.537-3.854,0.758c-0.336-0.174-0.632-0.389-0.883-0.631 c-0.267-0.631-0.284-1.312,0.016-1.892c0.62-1.199,2.348-1.54,3.855-0.761c0.333,0.172,0.628,0.383,0.878,0.625 C692.189,176.335,692.205,177.016,691.903,177.599z"/>
          <path style="fill:#FFFFFF;" d="M690.607,175.954c-0.1,0.194-0.418,0.229-0.709,0.078c-0.292-0.151-0.447-0.43-0.346-0.624 c0.1-0.194,0.418-0.229,0.709-0.078C690.552,175.48,690.707,175.76,690.607,175.954z"/>
          <path style="fill:#FFFFFF;" d="M689.021,176.21c-0.048,0.094-0.202,0.111-0.342,0.038c-0.141-0.073-0.216-0.208-0.167-0.301 c0.048-0.093,0.202-0.11,0.342-0.038C688.994,175.982,689.069,176.117,689.021,176.21z"/>
        </g>
        <g>
          <path style="fill:#CADCA1;" d="M683.805,196.839c0.018,0.025,0.026,0.035,0.026,0.035c-4.24,18.969-23.826,19.72-30.098,17.815 c-6.274-1.91-14.19-2.546-14.19-2.546c0.007-0.02,0.013-0.044,0.026-0.065c5.486-14.993,17.106-20.668,17.106-20.668 C672.051,183.604,683.161,196.099,683.805,196.839z"/>
          <path style="fill:#9CB85E;" d="M683.805,196.839c-9.894,2.45-35.677,9.212-44.237,15.239 c5.486-14.993,17.106-20.668,17.106-20.668C672.051,183.604,683.161,196.099,683.805,196.839z"/>
          <path style="fill:#F8FFE8;" d="M648.286,207.569c0,0,33.568-11.047,41.729-11.027l-0.244-1.753 C689.771,194.789,656.717,203.394,648.286,207.569z"/>
        </g>
        <g>
          <path style="fill:#CADCA1;" d="M692.006,213.808c-0.026,0.013-0.037,0.017-0.037,0.017c-4.963,17.55,10.87,26.908,16.898,28.134 c6.031,1.222,12.85,4.229,12.85,4.229c0.003-0.019,0.009-0.042,0.008-0.065c2.16-14.824-4.9-24.693-4.9-24.693 C707.614,208.126,692.868,213.484,692.006,213.808z"/>
          <path style="fill:#9CB85E;" d="M692.006,213.808c7.075,6.436,25.341,23.521,29.719,32.315c2.16-14.824-4.9-24.693-4.9-24.693 C707.614,208.126,692.868,213.484,692.006,213.808z"/>
          <path style="fill:#F8FFE8;" d="M716.54,238.511c0,0-22.781-24.095-29.528-27.719l0.984-1.338 C687.996,209.454,711.443,231.303,716.54,238.511z"/>
        </g>
        <g>
          <path style="fill:#99C3C4;" d="M693.51,215.614c-0.02-0.006-0.028-0.01-0.028-0.01c-11.497,6.747-7.88,19.693-5.321,23.39 c2.563,3.696,4.639,8.732,4.639,8.732c0.011-0.009,0.026-0.018,0.037-0.03c8.639-6.727,9.908-15.505,9.908-15.505 C704.617,220.514,694.128,215.88,693.51,215.614z"/>
          <path style="fill:#599AAB;" d="M693.51,215.614c0.475,6.974,1.468,25.228-0.673,32.081c8.639-6.727,9.908-15.505,9.908-15.505 C704.617,220.514,694.128,215.88,693.51,215.614z"/>
          <path style="fill:#BFE3E8;" d="M693.953,241.057c0,0,0.173-24.236-1.552-29.561l1.196-0.208 C693.597,211.289,694.911,234.677,693.953,241.057z"/>
        </g>
        <g>
          <g>
            <path style="fill:#FFFFFF;" d="M686.399,207.789l-0.327,0.017h-0.004l-1.113,0.064l-1.461,0.085c0,0-1.563-0.79-3.823-1.954 c-1.38-0.709-3.016-1.559-4.715-2.447c-5.11-2.68-10.76-5.743-11.52-6.563c-1.427-1.533,1.534-13.262,5.917-15.895 c4.384-2.629,11.074-2.302,13.593,1.755c0,0.004,0.004,0.004,0.004,0.008c1.143,1.852,1.962,7.162,2.51,12.408 c0.314,3.007,0.544,5.998,0.697,8.304v0.004C686.323,206.094,686.399,207.789,686.399,207.789z"/>
            <path style="fill:#FFFFFF;" d="M712.434,196.333c-0.697,1.189-4.201,3.118-8.373,5.076c-2.787,1.304-5.87,2.625-8.615,3.747 c-0.004,0-0.013,0.004-0.017,0.004c-4.12,1.686-7.468,2.931-7.88,3.012c-0.009,0-0.021,0.004-0.03,0.004 c-0.505,0.093-1.032-0.119-1.448-0.37h-0.004c-0.484-0.285-0.82-0.62-0.82-0.62c0.055-0.081,0.386-1.499,0.909-3.611v-0.004 c0.582-2.366,1.398-5.607,2.319-8.81c0.956-3.352,2.026-6.669,3.059-8.92c0.675-1.478,1.334-2.498,1.937-2.77 c3.177-1.427,13.372-0.548,16.002,2.413c1.266,1.423,2.434,3.254,3.097,5.123C713.275,192.624,713.402,194.684,712.434,196.333 z"/>
            <path style="fill:#FFFFFF;" d="M722.96,214.314c-0.11,0.161-0.259,0.352-0.442,0.569c-2.158,2.578-8.937,8.67-10.959,9.077 c-0.913,0.183-5.267-2.362-10.05-5.399c-5.509-3.5-11.588-7.654-13.597-9.035c0,0-0.004,0-0.004-0.004 c-0.438-0.302-0.684-0.472-0.684-0.472c0-0.03,0.009-0.072,0.021-0.123c0.042-0.17,0.153-0.446,0.276-0.752 c0.293-0.701,0.688-1.538,0.688-1.538s3.02-0.671,7.221-1.478c0.004,0,0.013-0.004,0.017-0.004 c2.906-0.561,6.376-1.189,9.8-1.712c4.362-0.663,8.649-1.151,11.588-1.104c1.686,0.025,2.931,0.229,3.492,0.684 C723.724,205.763,724.383,212.228,722.96,214.314z"/>
            <path style="fill:#FFFFFF;" d="M705.2,228.455c-0.11,3.505-7.234,6.465-11.512,7.234c-1.045,0.187-2.561,0.017-4.261-0.387 c-5.242-1.236-12.212-4.643-12.293-6.299c-0.013-0.293,0.123-0.871,0.374-1.652c0.561-1.784,1.703-4.617,2.944-7.544 c2.222-5.238,4.762-10.768,4.898-11.07c0.004-0.009,0.009-0.013,0.009-0.013l1.533-0.11c0,0,0.123,0.11,0.353,0.314 c0.166,0.149,0.391,0.353,0.663,0.595c0,0.004,0.004,0.004,0.004,0.004c2.111,1.903,7.09,6.469,11.168,10.713 C702.473,223.773,705.242,227.087,705.2,228.455z"/>
            <path style="fill:#FFFFFF;" d="M685.358,208.724c0,0-0.004,0.004-0.009,0.013c-0.191,0.268-3.602,5-7.162,9.337 c-3.037,3.696-6.181,7.102-7.519,7.2c-1.296,0.098-3.972-0.709-6.631-1.963c-3.424-1.618-6.814-3.989-7.183-6.146 c-0.658-3.84-1.423-12.497,1.975-13.487c0.166-0.051,0.382-0.085,0.633-0.111c2.532-0.246,9.12,0.641,14.901,1.555 c1.916,0.306,3.742,0.612,5.306,0.879c2.846,0.488,4.809,0.858,4.809,0.858l0.476,1.011L685.358,208.724z"/>
          </g>
          <path style="fill:#FCE8F2;" d="M706.406,208.613c0,3.899-1.873,7.425-4.898,9.948c-5.509-3.5-11.588-7.654-13.597-9.035 c2.111,1.903,7.09,6.469,11.168,10.713c-2.566,1.448-5.645,2.294-8.95,2.294c-3.628,0-6.975-1.015-9.676-2.727 c2.222-5.238,4.762-10.768,4.898-11.07c-0.191,0.268-3.602,5-7.162,9.337c-2.697-2.481-4.341-5.807-4.341-9.46 c0-1.207,0.178-2.375,0.518-3.492c1.916,0.306,3.742,0.612,5.306,0.879c-1.38-0.709-3.016-1.559-4.715-2.447 c1.81-3.967,5.692-7.056,10.505-8.287c0.314,3.007,0.544,5.998,0.697,8.304c0.582-2.366,1.398-5.607,2.319-8.81 c0.544-0.047,1.096-0.072,1.652-0.072c5.909,0,11.078,2.693,13.933,6.72c-2.787,1.304-5.87,2.625-8.615,3.747 c2.906-0.561,6.376-1.189,9.8-1.712C705.994,205.041,706.406,206.787,706.406,208.613z"/>
          <g>
            <polygon style="fill:#FCC7E2;" points="686.235,210.256 691.716,230.536 686.893,209.379 &#9;&#9;&#9;&#9;&#9;"/>
            <polygon style="fill:#FCC7E2;" points="689.414,207.406 713.531,209.379 689.305,208.173 &#9;&#9;&#9;&#9;&#9;"/>
            <path style="fill:#FCC7E2;" d="M697.526,192.278c-0.329,0.219-10.414,14.031-10.414,14.031l1.096,0.329L697.526,192.278z"/>
            <polygon style="fill:#FCC7E2;" points="674.725,190.853 684.481,206.858 685.248,206.419 &#9;&#9;&#9;&#9;&#9;"/>
            <polygon style="fill:#FCC7E2;" points="665.517,212.668 683.933,208.064 684.81,208.722 &#9;&#9;&#9;&#9;&#9;"/>
          </g>
          <path style="fill:#DE578E;" d="M690.511,207.789c0,1.967-1.839,3.564-4.112,3.564c-1.168,0-2.222-0.425-2.969-1.104 c-0.705-0.637-1.143-1.508-1.143-2.46c0-1.967,1.844-3.564,4.112-3.564c0.501,0,0.981,0.076,1.427,0.221 C689.394,204.947,690.511,206.256,690.511,207.789z"/>
          <path style="fill:#F685B4;" d="M688.977,206.914c0,1.967-1.844,3.56-4.112,3.56c-0.505,0-0.99-0.081-1.436-0.225 c-0.705-0.637-1.143-1.508-1.143-2.46c0-1.967,1.844-3.564,4.112-3.564c0.501,0,0.981,0.076,1.427,0.221 C688.54,205.087,688.977,205.958,688.977,206.914z"/>
          <path style="fill:#FFFFFF;" d="M686.427,205.652c0,0.318-0.356,0.575-0.795,0.575c-0.439,0-0.795-0.258-0.795-0.575 c0-0.318,0.356-0.576,0.795-0.576C686.071,205.077,686.427,205.334,686.427,205.652z"/>
          <path style="fill:#FFFFFF;" d="M684.701,207.046c0,0.153-0.172,0.278-0.384,0.278c-0.212,0-0.384-0.124-0.384-0.278 c0-0.154,0.172-0.278,0.384-0.278C684.529,206.768,684.701,206.893,684.701,207.046z"/>
        </g>
        <g transform="matrix(1, 0, 0, 1, -17.766468, 0)">
          <path style="fill:#CADCA1;" d="M722.277,80.48c-0.006,0.027-0.01,0.038-0.01,0.038c10.206,14.319,26.794,8.055,31.352,4.261 c4.557-3.799,10.931-7.114,10.931-7.114c-0.013-0.014-0.026-0.033-0.044-0.045c-9.846-10.566-21.527-11.209-21.527-11.209 C727.418,65.314,722.553,79.637,722.277,80.48z"/>
          <path style="fill:#9CB85E;" d="M724.827,82.519c9.108-1.439,32.975-4.872,42.23-2.86c-9.847-10.566-21.527-11.209-21.527-11.209 C729.968,67.354,725.103,81.676,724.827,82.519z"/>
          <path style="fill:#F8FFE8;" d="M758.204,78.968c0,0-31.863,2.6-38.658,5.488l-0.413-1.547 C719.133,82.909,749.709,78.454,758.204,78.968z"/>
        </g>
        <g>
          <path style="fill:#CADCA1;" d="M165.322,20.279c-0.025,0.011-0.036,0.015-0.036,0.015c-5.377,16.741,9.562,26.294,15.328,27.68 c5.77,1.382,12.238,4.51,12.238,4.51c0.003-0.018,0.01-0.04,0.01-0.062c2.583-14.21-3.885-23.958-3.885-23.958 C180.552,15.333,166.163,19.996,165.322,20.279z"/>
          <path style="fill:#9CB85E;" d="M165.322,20.279c6.598,6.441,23.619,23.521,27.539,32.143c2.583-14.21-3.885-23.958-3.885-23.958 C180.552,15.333,166.163,19.996,165.322,20.279z"/>
          <path style="fill:#F8FFE8;" d="M188.124,44.912c0,0-21.133-23.988-27.511-27.708l0.993-1.256 C161.606,15.948,183.456,37.794,188.124,44.912z"/>
        </g>
        <g>
          <path style="fill:#CADCA1;" d="M534.142,465.591c0.008,0.036,0.01,0.051,0.01,0.051c20.18,11.281,36.375-5.489,39.659-12.56 c3.281-7.077,8.994-14.6,8.994-14.6c-0.023-0.009-0.049-0.024-0.078-0.029c-17.643-7.024-31.888-1.221-31.888-1.221 C531.727,444.676,533.996,464.434,534.142,465.591z"/>
          <path style="fill:#9CB85E;" d="M534.142,465.591c10.017-6.83,36.454-24.327,48.585-27.138 c-17.643-7.024-31.888-1.221-31.888-1.221C531.727,444.676,533.996,464.434,534.142,465.591z"/>
          <path style="fill:#F8FFE8;" d="M571.817,442.607c0,0-36.41,21.003-42.863,28.255l-1.36-1.606 C527.594,469.256,561.431,446.772,571.817,442.607z"/>
        </g>
        <g transform="matrix(1, 0, 0, 1, 197.33504, -213.832492)">
          <path style="fill:#99C3C4;" d="M8.834,427.027c0.02,0.002,0.028,0.004,0.028,0.004c9.484-8.277,3.855-19.655,0.833-22.635 c-3.027-2.98-5.836-7.288-5.836-7.288c-0.009,0.01-0.021,0.021-0.029,0.035c-6.836,7.757-6.473,16.124-6.473,16.124 C-2.331,424.43,8.214,426.889,8.834,427.027z"/>
          <path style="fill:#599AAB;" d="M8.834,427.027c-1.665-6.387-5.788-23.15-5.005-29.884c-6.836,7.757-6.473,16.124-6.473,16.124 C-2.331,424.43,8.214,426.889,8.834,427.027z"/>
          <path style="fill:#BFE3E8;" d="M3.958,403.498c0,0,4.092,22.517,6.627,27.155l-1.073,0.403 C9.512,431.056,4.189,409.586,3.958,403.498z"/>
        </g>
        <g>
          <path style="fill:#99C3C4;" d="M697.959,421.989c-0.02,0.002-0.028,0.004-0.028,0.004c-9.483-8.277-3.855-19.655-0.832-22.635 c3.027-2.98,5.836-7.288,5.836-7.288c0.009,0.01,0.021,0.021,0.029,0.035c6.836,7.757,6.473,16.124,6.473,16.124 C709.125,419.392,698.579,421.852,697.959,421.989z"/>
          <path style="fill:#599AAB;" d="M697.959,421.989c1.665-6.387,5.788-23.15,5.005-29.884c6.836,7.757,6.473,16.124,6.473,16.124 C709.125,419.392,698.579,421.852,697.959,421.989z"/>
          <path style="fill:#BFE3E8;" d="M702.835,398.46c0,0-4.091,22.517-6.627,27.155l1.073,0.403 C697.281,426.018,702.604,404.548,702.835,398.46z"/>
        </g>
        <g>
          <path style="fill:#99C3C4;" d="M256.046,465.528c0.02,0.019,0.029,0.026,0.029,0.026c-0.401,17.369-17.44,21.451-23.271,20.877 c-5.834-0.578-12.884,0.248-12.884,0.248c0.003-0.018,0.004-0.041,0.011-0.061c2.189-14.102,11.383-21.108,11.383-21.108 C243.429,455.98,255.352,464.992,256.046,465.528z"/>
          <path style="fill:#599AAB;" d="M256.046,465.528c-8.245,3.876-29.665,14.31-36.115,21.09 c2.189-14.102,11.383-21.108,11.383-21.108C243.429,455.98,255.352,464.992,256.046,465.528z"/>
          <path style="fill:#BFE3E8;" d="M226.785,481.141c0,0,27.495-15.551,34.654-16.959l-0.52-1.494 C260.918,462.688,233.446,476.008,226.785,481.141z"/>
        </g>
        <g>
          <path style="fill:#99C3C4;" d="M701.486,265.906c-0.019,0.003-0.026,0.004-0.026,0.004c-6.329,10.025,1.815,18.777,5.346,20.653 c3.534,1.874,7.23,5.005,7.23,5.005c0.005-0.011,0.013-0.025,0.017-0.039c4.08-8.843,1.498-16.296,1.498-16.296 C712.263,265.242,702.083,265.863,701.486,265.906z"/>
          <path style="fill:#599AAB;" d="M701.486,265.906c3.223,5.316,11.46,19.334,12.568,25.623c4.08-8.843,1.498-16.296,1.498-16.296 C712.263,265.242,702.083,265.863,701.486,265.906z"/>
          <path style="fill:#BFE3E8;" d="M712.225,285.828c0,0-9.759-19.22-13.296-22.723l0.86-0.653 C699.789,262.452,710.377,280.395,712.225,285.828z"/>
        </g>
      </g>
    </g>
  </g>
</svg>