<?xml version="1.0" encoding="utf-8"?>
<svg viewBox="0 0 1363.878 419.372" xmlns="http://www.w3.org/2000/svg">
  <clipPath id="SVGID_00000161622842633534598510000016454961924248138934_">
    <rect width="750" height="500" style="overflow: visible;" x="1.268" y="-1.268"/>
  </clipPath>
  <g style="clip-path:url(#SVGID_00000161622842633534598510000016454961924248138934_);" transform="matrix(1, 0, 0, 1, -463.879493, -61.865396)">
    <g>
      <path style="fill: rgb(254, 243, 199);" d="M 498.174 103.41 C 498.162 103.429 498.158 103.437 498.158 103.437 C 489.931 104.931 484.493 100.953 481.35 96.518 C 479.25 93.555 478.175 90.387 477.978 88.513 C 477.489 83.832 475.7 78.421 475.7 78.421 C 475.715 78.42 475.733 78.417 475.75 78.42 C 487.193 77.861 494.189 83.958 494.189 83.958 C 503.642 91.944 498.483 102.777 498.174 103.41 Z"/>
      <path style="fill: rgb(253, 224, 71);" d="M498.174,103.41c-4.382-5.857-16.05-21.013-22.424-24.99c11.443-0.559,18.439,5.538,18.439,5.538 C503.642,91.944,498.483,102.777,498.174,103.41z"/>
      <path style="fill: rgb(253, 230, 138);" d="M481.165,82.924c0,0,16.675,19.107,18.94,24.508l1.09-0.651 C501.195,106.782,486.278,87.332,481.165,82.924z"/>
    </g>
    <g/>
  </g>
  <g transform="matrix(1, 0, 0, 1, -349.636388, 219.618091)">
    <path style="fill:#DE6A7C;" d="M382.935,129.353c0,0-7.617,1.714-10.265-1.148c-2.648-2.862-0.612-4.53,1.853-5.06 C376.989,122.616,382.935,129.353,382.935,129.353z"/>
    <path style="fill:#DE6A7C;" d="M382.932,129.36c0,0-4.997-5.998-3.657-9.66c1.34-3.661,3.753-2.61,5.348-0.657 C386.219,120.997,382.932,129.36,382.932,129.36z"/>
    <path style="fill:#DE6A7C;" d="M382.932,129.36c0,0,2.403-7.428,6.215-8.25c3.811-0.822,4.211,1.78,3.411,4.171 C391.758,127.673,382.932,129.36,382.932,129.36z"/>
    <path style="fill:#DE6A7C;" d="M382.932,129.36c0,0,7.564-1.935,10.294,0.849c2.73,2.783,0.744,4.51-1.705,5.111 C389.072,135.921,382.932,129.36,382.932,129.36z"/>
    <path style="fill:#DE6A7C;" d="M382.932,129.36c0,0,5.478,5.563,4.447,9.322c-1.031,3.76-3.523,2.913-5.275,1.099 C380.352,137.967,382.932,129.36,382.932,129.36z"/>
    <path style="fill:#DE6A7C;" d="M382.932,129.36c0,0-2.207,7.489-5.996,8.411c-3.788,0.922-4.256-1.669-3.519-4.08 C374.154,131.279,382.932,129.36,382.932,129.36z"/>
  </g>
  <g transform="matrix(0.585895, 0, 0, 0.674461, -132.266893, 299.862675)" style="">
    <path style="fill:#DE6A7C;" d="M382.935,129.353c0,0-7.617,1.714-10.265-1.148c-2.648-2.862-0.612-4.53,1.853-5.06 C376.989,122.616,382.935,129.353,382.935,129.353z"/>
    <path style="fill:#DE6A7C;" d="M382.932,129.36c0,0-4.997-5.998-3.657-9.66c1.34-3.661,3.753-2.61,5.348-0.657 C386.219,120.997,382.932,129.36,382.932,129.36z"/>
    <path style="fill:#DE6A7C;" d="M382.932,129.36c0,0,2.403-7.428,6.215-8.25c3.811-0.822,4.211,1.78,3.411,4.171 C391.758,127.673,382.932,129.36,382.932,129.36z"/>
    <path style="fill:#DE6A7C;" d="M382.932,129.36c0,0,7.564-1.935,10.294,0.849c2.73,2.783,0.744,4.51-1.705,5.111 C389.072,135.921,382.932,129.36,382.932,129.36z"/>
    <path style="fill:#DE6A7C;" d="M382.932,129.36c0,0,5.478,5.563,4.447,9.322c-1.031,3.76-3.523,2.913-5.275,1.099 C380.352,137.967,382.932,129.36,382.932,129.36z"/>
    <path style="fill:#DE6A7C;" d="M382.932,129.36c0,0-2.207,7.489-5.996,8.411c-3.788,0.922-4.256-1.669-3.519-4.08 C374.154,131.279,382.932,129.36,382.932,129.36z"/>
  </g>
  <clipPath id="clip-1">
    <rect width="750" height="500" style="overflow: visible;" x="1.268" y="-1.268"/>
  </clipPath>
  <g style="clip-path: url('#clip-1');" transform="matrix(1, 0, 0, 1, 601.442941, 1.861219)">
    <g transform="matrix(1, 0, 0, 1, 347.239416, 44.732938)">
      <path style="fill:#99C3C4;" d="M345.38,335.877c0.017-0.022,0.025-0.03,0.025-0.03c-3.004-17.325-20.669-18.858-26.42-17.41 c-5.752,1.452-12.933,1.682-12.933,1.682c0.006,0.018,0.01,0.041,0.02,0.06c4.304,13.787,14.556,19.422,14.556,19.422 C334.182,347.324,344.766,336.518,345.38,335.877z"/>
      <path style="fill:#599AAB;" d="M345.38,335.877c-8.833-2.645-31.835-9.879-39.307-15.699 c4.304,13.787,14.556,19.422,14.556,19.422C334.182,347.324,344.766,336.518,345.38,335.877z"/>
      <path style="fill:#BFE3E8;" d="M313.753,324.634c0,0,29.85,11.446,37.226,11.783l-0.297,1.573 C350.681,337.99,321.189,328.773,313.753,324.634z"/>
    </g>
    <g transform="matrix(1, 0, 0, 1, 360.659277, 40.818822)">
      <g>
        <path style="fill:#00647D;" d="M366.153,323.493c0,0-7.269-44.154-32.531-64.459c0,0,24.328,13.235,33.955,63.523 L366.153,323.493z"/>
        <path style="fill:#00647D;" d="M341.408,265.818c0,0-20.231-12.808-20.263-17.841 C321.114,242.945,331.776,251.691,341.408,265.818z"/>
        <path style="fill:#00647D;" d="M345.951,271.511c0,0-12.189-19.661-7.077-20.686 C343.986,249.801,345.951,271.511,345.951,271.511z"/>
        <path style="fill:#00647D;" d="M345.189,270.617c0,0-18.025-0.806-18.604-4.816 C326.006,261.79,338.639,266.697,345.189,270.617z"/>
        <path style="fill:#00647D;" d="M350.036,276.667c0,0-6.127-21.31-1.704-22.056 C352.756,253.865,351.728,267.575,350.036,276.667z"/>
        <path style="fill:#00647D;" d="M349.526,276.793c0,0-16.695,0.899-18.086-2.543C330.05,270.808,338.63,271.826,349.526,276.793 z"/>
        <path style="fill:#00647D;" d="M354.218,285.629c0,0-3.013-25.691,3.356-26.182 C363.942,258.956,354.218,285.629,354.218,285.629z"/>
        <path style="fill:#00647D;" d="M354.118,284.788c0,0-18.646-0.955-20.104-3.97 C332.556,277.804,336.435,275.115,354.118,284.788z"/>
        <path style="fill:#00647D;" d="M357.553,293.091c0,0,2.035-25.488,7.492-26.252 C370.503,266.075,363.754,280.094,357.553,293.091z"/>
        <path style="fill:#00647D;" d="M360.045,299.853c0,0,4.946-21.059,9.062-22.962c4.116-1.903,5.047,0.203,2.474,5.727 C369.008,288.142,360.045,299.853,360.045,299.853z"/>
        <path style="fill:#00647D;" d="M362.996,307.95c0,0,7.241-22.704,11.538-22.882c4.296-0.178,2.276,4.85-0.56,9.65 C371.138,299.517,362.996,307.95,362.996,307.95z"/>
        <path style="fill:#00647D;" d="M365.23,315.857c0,0,8.74-23.817,13.15-22.65s1.467,5.681-0.328,8.566 C376.258,304.657,365.23,315.857,365.23,315.857z"/>
        <path style="fill:#00647D;" d="M365.483,315.406c0,0-22.191,0.089-24.662-5.465 C338.351,304.387,348.253,306.672,365.483,315.406z"/>
        <path style="fill:#00647D;" d="M362.886,308.221c0,0-23.696-1.315-23.847-6.932 C338.888,295.672,351.76,300.576,362.886,308.221z"/>
        <path style="fill:#00647D;" d="M360.51,299.95c0,0-24.805-3.852-24.348-9.002C336.619,285.797,356.224,295.468,360.51,299.95z"/>
        <path style="fill:#00647D;" d="M357.811,291.946c0,0-21.838-3.109-22.511-6.361 C334.626,282.333,344.729,285.138,357.811,291.946z"/>
      </g>
    </g>
    <g>
      <path style="fill:#CADCA1;" d="M261.819,400.217c-0.012,0.021-0.017,0.03-0.017,0.03c-14.803,2.891-21.433-10.798-22.032-15.849 c-0.595-5.054-2.607-10.879-2.607-10.879c0.016-0.001,0.036-0.005,0.054-0.002c12.365-0.767,20.016,5.726,20.016,5.726 C267.568,387.742,262.145,399.529,261.819,400.217z"/>
      <path style="fill:#9CB85E;" d="M261.819,400.217c-4.821-6.27-17.653-22.492-24.602-26.701 c12.365-0.767,20.016,5.726,20.016,5.726C267.568,387.742,262.145,399.529,261.819,400.217z"/>
      <path style="fill:#F8FFE8;" d="M243.137,378.309c0,0,18.301,20.422,20.827,26.23l1.17-0.719 C265.134,403.82,248.729,383.002,243.137,378.309z"/>
    </g>
    <g transform="matrix(1, 0, 0, 1, 360.659277, 40.818822)">
      <g>
        <path style="fill:#FFEBEA;" d="M357.695,328.464l-0.071,0.32l-0.001,0.004l-0.235,1.09l-0.307,1.431 c0,0-1.178,1.296-2.902,3.164c-1.052,1.142-2.306,2.491-3.615,3.892c-3.945,4.211-8.403,8.84-9.396,9.354 c-1.858,0.967-12.373-5.013-13.743-9.94c-1.366-4.926,0.733-11.287,5.314-12.634c0.004,0.001,0.005-0.003,0.009-0.002 c2.09-0.608,7.426,0.018,12.628,0.888c2.982,0.499,5.926,1.075,8.19,1.542l0.004,0.001 C356.041,328.086,357.695,328.464,357.695,328.464z"/>
        <path style="fill:#FFEBEA;" d="M353.593,300.318c0.961,0.989,1.885,4.88,2.661,9.423c0.514,3.033,0.966,6.358,1.315,9.301 c-0.001,0.004,0.001,0.014,0,0.018c0.527,4.421,0.834,7.979,0.802,8.397c-0.002,0.008-0.002,0.022-0.004,0.03 c-0.045,0.512-0.39,0.963-0.742,1.298l-0.001,0.004c-0.403,0.391-0.816,0.625-0.816,0.625 c-0.063-0.075-1.342-0.772-3.238-1.839l-0.004-0.001c-2.125-1.192-5.032-2.842-7.873-4.584 c-2.975-1.814-5.888-3.73-7.783-5.326c-1.245-1.045-2.052-1.951-2.153-2.605c-0.529-3.443,3.036-13.034,6.591-14.779 c1.709-0.841,3.785-1.479,5.763-1.619C350.243,298.519,352.262,298.945,353.593,300.318z"/>
        <path style="fill:#FFEBEA;" d="M373.729,294.965c0.126,0.149,0.271,0.344,0.431,0.578c1.91,2.767,5.974,10.925,5.828,12.982 c-0.067,0.929-3.68,4.447-7.883,8.248c-4.842,4.377-10.466,9.128-12.333,10.697c0,0-0.001,0.004-0.005,0.003 c-0.407,0.341-0.637,0.533-0.637,0.533c-0.029-0.008-0.067-0.027-0.113-0.053c-0.153-0.086-0.389-0.266-0.651-0.467 c-0.597-0.469-1.299-1.073-1.299-1.073s0.158-3.09,0.5-7.354c0.001-0.004-0.001-0.013,0-0.018 c0.234-2.95,0.553-6.462,0.962-9.901c0.524-4.381,1.196-8.642,2.024-11.463c0.474-1.619,1.002-2.764,1.59-3.183 C365.691,291.949,372.098,293.038,373.729,294.965z"/>
        <path style="fill:#FFEBEA;" d="M382.624,315.852c3.348,1.041,4.303,8.696,3.904,13.023c-0.098,1.057-0.666,2.473-1.508,4.003 c-2.589,4.723-7.73,10.533-9.348,10.169c-0.286-0.066-0.806-0.351-1.493-0.801c-1.57-1.016-3.996-2.872-6.487-4.848 c-4.456-3.537-9.109-7.46-9.364-7.671c-0.007-0.006-0.01-0.012-0.01-0.012l0.302-1.507c0,0,0.139-0.089,0.397-0.256 c0.187-0.12,0.444-0.283,0.75-0.48c0.004,0.001,0.005-0.003,0.005-0.003c2.397-1.527,8.125-5.109,13.302-7.908 C377.386,317.233,381.317,315.447,382.624,315.852z"/>
        <path style="fill:#FFEBEA;" d="M358.318,329.716c0,0,0.003,0.005,0.01,0.012c0.207,0.255,3.859,4.804,7.09,9.391 c2.752,3.912,5.198,7.85,4.935,9.166c-0.251,1.275-1.742,3.639-3.659,5.868c-2.472,2.868-5.66,5.504-7.839,5.285 c-3.877-0.389-12.424-1.96-12.472-5.499c-0.005-0.173,0.02-0.391,0.062-0.639c0.437-2.506,3.049-8.619,5.47-13.948 c0.805-1.765,1.587-3.444,2.262-4.879c1.229-2.613,2.109-4.406,2.109-4.406l1.101-0.189L358.318,329.716z"/>
      </g>
      <path style="fill:#FEC0BD;" d="M363.822,309.401c3.758,1.039,6.657,3.785,8.283,7.372c-4.842,4.377-10.466,9.128-12.333,10.697 c2.397-1.527,8.125-5.109,13.302-7.908c0.712,2.859,0.706,6.052-0.175,9.238c-0.967,3.496-2.838,6.452-5.208,8.6 c-4.456-3.537-9.109-7.46-9.364-7.671c0.207,0.255,3.859,4.804,7.09,9.391c-3.11,1.939-6.754,2.637-10.275,1.663 c-1.163-0.322-2.241-0.805-3.227-1.43c0.805-1.765,1.587-3.444,2.262-4.879c-1.052,1.142-2.306,2.491-3.615,3.892 c-3.342-2.802-5.283-7.367-5.188-12.334c2.982,0.499,5.926,1.075,8.19,1.542c-2.125-1.192-5.032-2.842-7.873-4.584 c0.1-0.536,0.223-1.076,0.371-1.612c1.575-5.695,5.548-9.96,10.191-11.637c0.514,3.033,0.966,6.358,1.315,9.301 c0.234-2.95,0.553-6.462,0.962-9.901C360.269,308.845,362.062,308.914,363.822,309.401z"/>
      <g>
        <polygon style="fill:#F8827F;" points="360.029,329.28 381.036,329.403 359.359,328.412 &#9;&#9;&#9;&#9;&#9;"/>
        <polygon style="fill:#F8827F;" points="358.13,325.456 366.46,302.738 358.84,325.766 &#9;&#9;&#9;&#9;&#9;"/>
        <path style="fill:#F8827F;" d="M345.711,313.605c0.124,0.375,10.748,13.777,10.748,13.777l0.609-0.969L345.711,313.605z"/>
        <polygon style="fill:#F8827F;" points="338.26,335.202 356.286,330.065 356.068,329.208 &#9;&#9;&#9;&#9;&#9;"/>
        <polygon style="fill:#F8827F;" points="356.831,349.891 357.303,330.914 358.17,330.244 &#9;&#9;&#9;&#9;&#9;"/>
      </g>
      <path style="fill:#DE578E;" d="M358.791,324.501c1.896,0.524,2.945,2.723,2.339,4.913c-0.311,1.126-1.002,2.028-1.856,2.568 c-0.802,0.51-1.758,0.699-2.675,0.446c-1.896-0.524-2.944-2.727-2.339-4.913c0.134-0.483,0.335-0.925,0.593-1.317 C355.754,324.82,357.313,324.092,358.791,324.501z"/>
      <path style="fill:#F685B4;" d="M357.539,325.746c1.896,0.524,2.94,2.726,2.335,4.912c-0.135,0.487-0.341,0.932-0.6,1.324 c-0.802,0.51-1.758,0.699-2.675,0.446c-1.896-0.524-2.944-2.727-2.339-4.913c0.134-0.483,0.335-0.925,0.593-1.317 C355.662,325.681,356.618,325.491,357.539,325.746z"/>
      <path style="fill:#FFEBEA;" d="M355.643,327.868c0.306,0.085,0.46,0.496,0.343,0.919c-0.117,0.423-0.46,0.697-0.767,0.613 c-0.306-0.085-0.46-0.496-0.343-0.919C354.993,328.057,355.336,327.783,355.643,327.868z"/>
      <path style="fill:#FFEBEA;" d="M356.526,329.904c0.148,0.041,0.222,0.24,0.165,0.444c-0.056,0.204-0.222,0.337-0.37,0.296 s-0.222-0.24-0.165-0.444C356.213,329.995,356.378,329.862,356.526,329.904z"/>
    </g>
    <clipPath id="clip-2">
      <rect width="750" height="500" style="overflow: visible;" x="1.268" y="-1.268"/>
    </clipPath>
    <g style="clip-path: url('#clip-2');" transform="matrix(1, 0, 0, 1, 254.291401, -389.856726)">
      <g>
        <path style="fill:#FCE8F2;" d="M476.599,463.978c0,0-26.916-2.557-39.114-13.663c-0.332-0.302-0.659-0.616-0.97-0.932 c0,0,8.32-3.368,19.533,0.238C462.309,451.626,469.479,455.812,476.599,463.978z"/>
        <path style="fill:#FCE8F2;" d="M475.834,463.241c0,0-21.381-18.91-23.81-35.395 C452.024,427.845,473.184,433.138,475.834,463.241z"/>
        <path style="fill:#F685B4;" d="M481.127,438.106c0.628,5.487,0.391,11.633-1.56,17.966c0,0-0.003,0.006-0.005,0.012 c-0.703,2.285-1.63,4.592-2.825,6.902c0,0-0.221-0.424-0.579-1.222c-0.873-1.947-2.551-6.138-3.767-11.908 c-1.784-8.418-2.597-20.204,1.463-33.34C473.855,416.518,479.714,425.593,481.127,438.106z"/>
        <path style="fill:#DE578E;" d="M476.349,424.461c0,0,2.723,7.388,4.779,13.645c0.628,5.487,0.391,11.633-1.56,17.966 c0,0-0.003,0.006-0.005,0.012c-1.37,2.571-2.762,4.722-3.404,5.681c-0.873-1.947-2.551-6.138-3.767-11.908 C473.718,441.592,476.349,424.461,476.349,424.461z"/>
        <path style="fill:#DE578E;" d="M475.679,464.009c0,0,20.32,25.926,26.886,40.919l1.692-0.273c0,0-12.176-24.565-27.748-41.576 L475.679,464.009z"/>
        <path style="fill:#F685B4;" d="M476.898,464.391c0,0-6.627,2.012-14.618,3.827c-7.59,1.733-16.422,3.294-21.97,2.794 c-0.659-0.058-1.272-0.145-1.833-0.268c0,0,2.026-2.3,6.109-4.545c5.607-3.094,15.095-6.084,28.526-2.854 C474.339,463.636,475.6,463.987,476.898,464.391z"/>
        <path style="fill:#DE578E;" d="M476.898,464.391c0,0-6.627,2.012-14.618,3.827c3.378-1.603,7.767-3.639,10.832-4.874 C474.339,463.636,475.6,463.987,476.898,464.391z"/>
        <path style="fill:#DE578E;" d="M486.946,418.244c0,0,0.096,0.293,0.24,0.85c1.119,4.32,5.162,24.532-10.497,45.772 c0.002-0.28,0.236-10.317,2.046-21.55C480.202,434.236,482.702,424.373,486.946,418.244z"/>
        <path style="fill:#F685B4;" d="M475.568,449.983c0.677,1.793,1.122,3.508,1.403,5.111c0.794,4.516,0.295,8.183,0.106,10.424 c0,0-0.909-0.843-2.289-2.402c-0.521-0.583-1.112-1.274-1.743-2.056c-2.061-2.555-4.583-6.115-6.764-10.452 c-0.864-1.703-1.667-3.528-2.374-5.459c-4.512-12.34-2.74-25.315-2.74-25.315s0.31,0.61,0.845,1.669 c1.596,3.179,5.195,10.378,8.354,16.967l0.002,0.005C472.632,443.187,474.664,447.594,475.568,449.983z"/>
        <path style="fill:#DE578E;" d="M476.972,455.095c0.794,4.516,0.295,8.183,0.106,10.424c0,0-0.909-0.843-2.289-2.402 c-0.726-5.345-2.424-18.495-2.424-18.495S475.386,450.004,476.972,455.095z"/>
        <path style="fill:#DB2852;" d="M486.946,418.244c0,0,0.096,0.293,0.24,0.85c-0.648,1.049-1.34,2.218-1.873,3.268 c-0.995,1.967-4.594,14.015-6.578,20.955C480.202,434.236,482.702,424.373,486.946,418.244z"/>
        <path style="fill:#FFFFFF;" d="M462.013,421.504c-0.079,0.646-0.16,1.325-0.243,2.025c-1.198,9.966,3.153,23.249,4.512,27.08 c-0.864-1.703-1.667-3.528-2.374-5.459c-4.512-12.34-2.74-25.315-2.74-25.315S461.478,420.445,462.013,421.504z"/>
        <path style="fill:#FFFFFF;" d="M444.586,466.199c-2.145,2.052-3.509,3.753-4.276,4.813c-0.659-0.058-1.272-0.145-1.833-0.268 C438.477,470.744,440.502,468.444,444.586,466.199z"/>
        <path style="fill:#FFFFFF;" d="M456.048,449.621c-8.429-1.7-15.643-0.138-18.563,0.694c-0.332-0.302-0.659-0.616-0.97-0.932 C436.515,449.383,444.834,446.015,456.048,449.621z"/>
      </g>
    </g>
  </g>
  <g transform="matrix(1, 0, 0, 1, 282.65601, -56.517335)">
    <path style="fill:#99C3C4;" d="M542.538,122.495c-0.03-0.014-0.042-0.018-0.042-0.018c-6.085-19.655,11.511-30.649,18.275-32.2 c6.768-1.546,14.375-5.126,14.375-5.126c0.004,0.022,0.012,0.048,0.011,0.073c2.848,16.659-4.84,27.985-4.84,27.985 C560.298,128.469,543.518,122.837,542.538,122.495z"/>
    <path style="fill:#599AAB;" d="M542.538,122.495c7.8-7.455,27.926-27.231,32.618-37.271c2.848,16.659-4.84,27.985-4.84,27.985 C560.298,128.469,543.518,122.837,542.538,122.495z"/>
    <path style="fill:#BFE3E8;" d="M569.521,93.953c0,0-25.023,27.808-32.531,32.083l1.147,1.481 C538.136,127.517,563.972,102.223,569.521,93.953z"/>
  </g>
  <g transform="matrix(1, 0, 0, 1, 122.738069, 36.26936)">
    <path style="fill: rgb(254, 243, 199);" d="M 498.174 103.41 C 498.162 103.429 498.158 103.437 498.158 103.437 C 489.931 104.931 484.493 100.953 481.35 96.518 C 479.25 93.555 478.175 90.387 477.978 88.513 C 477.489 83.832 475.7 78.421 475.7 78.421 C 475.715 78.42 475.733 78.417 475.75 78.42 C 487.193 77.861 494.189 83.958 494.189 83.958 C 503.642 91.944 498.483 102.777 498.174 103.41 Z"/>
    <path style="fill: rgb(253, 224, 71);" d="M498.174,103.41c-4.382-5.857-16.05-21.013-22.424-24.99c11.443-0.559,18.439,5.538,18.439,5.538 C503.642,91.944,498.483,102.777,498.174,103.41z"/>
    <path style="fill: rgb(253, 230, 138);" d="M481.165,82.924c0,0,16.675,19.107,18.94,24.508l1.09-0.651 C501.195,106.782,486.278,87.332,481.165,82.924z"/>
  </g>
  <g transform="matrix(1, 0, 0, 1, -326.551824, -113.871225)">
    <path style="fill:#FCE8F2;" d="M673.351,157.353c0,0-18.307-7.095-24.642-17.262c-0.173-0.277-0.339-0.561-0.495-0.843 c0,0,6.479-0.713,13.605,4.019C665.8,145.903,669.985,150.242,673.351,157.353z"/>
    <path style="fill:#FCE8F2;" d="M672.962,156.687c0,0-11.214-17.432-9.661-29.433 C663.301,127.255,677.046,135.126,672.962,156.687z"/>
    <path style="fill:#F685B4;" d="M681.618,140.165c-0.643,3.959-2.021,8.208-4.633,12.249c0,0-0.003,0.004-0.006,0.008 c-0.942,1.458-2.045,2.888-3.335,4.267c0,0-0.07-0.34-0.164-0.968c-0.226-1.533-0.573-4.793-0.284-9.065 c0.413-6.235,2.169-14.632,7.597-23.012C680.792,123.643,683.098,131.141,681.618,140.165z"/>
    <path style="fill:#DE578E;" d="M680.969,129.686c0,0,0.446,5.7,0.649,10.479c-0.643,3.959-2.021,8.208-4.633,12.249 c0,0-0.003,0.004-0.006,0.008c-1.464,1.527-2.862,2.756-3.499,3.299c-0.226-1.533-0.573-4.793-0.284-9.065 C675.752,141.14,680.969,129.686,680.969,129.686z"/>
    <path style="fill:#DE578E;" d="M672.702,157.193c0,0,9.089,22.126,10.721,33.9l1.236,0.143c0,0-3.665-19.569-11.194-34.529 L672.702,157.193z"/>
    <path style="fill:#F685B4;" d="M673.479,157.701c0,0-5.028,0.099-10.971-0.208c-5.646-0.285-12.127-0.936-15.906-2.38 c-0.449-0.171-0.861-0.352-1.228-0.549c0,0,1.869-1.208,5.166-1.972c4.529-1.057,11.749-1.275,20.499,3.63 C671.839,156.669,672.651,157.163,673.479,157.701z"/>
    <path style="fill:#DE578E;" d="M673.479,157.701c0,0-5.028,0.099-10.971-0.208c2.677-0.454,6.146-1.011,8.531-1.27 C671.839,156.669,672.651,157.163,673.479,157.701z"/>
    <path style="fill:#DE578E;" d="M689.601,127.431c0,0,0.009,0.223,0,0.642c-0.07,3.24-1.23,18.163-16.362,29.92 c0.057-0.195,2.199-7.164,5.679-14.658C681.734,137.278,685.426,130.877,689.601,127.431z"/>
    <path style="fill:#F685B4;" d="M675.391,147.369c0.12,1.387,0.092,2.673-0.027,3.849c-0.335,3.313-1.408,5.777-1.981,7.306 c0,0-0.469-0.768-1.126-2.13c-0.25-0.51-0.526-1.109-0.813-1.781c-0.936-2.192-1.997-5.177-2.666-8.638 c-0.268-1.361-0.47-2.795-0.583-4.283c-0.72-9.514,3.077-18.233,3.077-18.233s0.096,0.488,0.262,1.333 c0.488,2.537,1.584,8.278,2.492,13.506l0,0.003C674.678,142.041,675.23,145.521,675.391,147.369z"/>
    <path style="fill:#DE578E;" d="M675.363,151.218c-0.335,3.313-1.408,5.777-1.981,7.306c0,0-0.469-0.768-1.126-2.13 c0.547-3.878,1.953-13.404,1.953-13.404S675.259,147.348,675.363,151.218z"/>
    <path style="fill:#DB2852;" d="M689.601,127.431c0,0,0.009,0.223,0,0.642c-0.659,0.605-1.374,1.286-1.953,1.914 c-1.083,1.179-5.975,8.889-8.729,13.348C681.734,137.278,685.426,130.877,689.601,127.431z"/>
    <path style="fill:#FFFFFF;" d="M671.533,124.792c-0.183,0.436-0.373,0.894-0.57,1.367c-2.802,6.729-2.381,16.87-2.187,19.816 c-0.268-1.361-0.47-2.795-0.583-4.283c-0.72-9.514,3.077-18.233,3.077-18.233S671.368,123.947,671.533,124.792z"/>
    <path style="fill:#FFFFFF;" d="M650.54,152.592c-1.904,1.012-3.193,1.931-3.938,2.52c-0.449-0.171-0.861-0.352-1.228-0.549 C645.374,154.564,647.243,153.356,650.54,152.592z"/>
    <path style="fill:#FFFFFF;" d="M661.819,143.267c-5.556-2.851-10.906-3.181-13.11-3.176c-0.173-0.277-0.339-0.561-0.495-0.843 C648.215,139.248,654.693,138.535,661.819,143.267z"/>
  </g>
  <g transform="matrix(0.634105, 0, 0, 0.562414, 98.999651, 191.49451)" style="">
    <g>
      <path style="fill:#FFEBEA;" d="M357.695,328.464l-0.071,0.32l-0.001,0.004l-0.235,1.09l-0.307,1.431 c0,0-1.178,1.296-2.902,3.164c-1.052,1.142-2.306,2.491-3.615,3.892c-3.945,4.211-8.403,8.84-9.396,9.354 c-1.858,0.967-12.373-5.013-13.743-9.94c-1.366-4.926,0.733-11.287,5.314-12.634c0.004,0.001,0.005-0.003,0.009-0.002 c2.09-0.608,7.426,0.018,12.628,0.888c2.982,0.499,5.926,1.075,8.19,1.542l0.004,0.001 C356.041,328.086,357.695,328.464,357.695,328.464z"/>
      <path style="fill:#FFEBEA;" d="M353.593,300.318c0.961,0.989,1.885,4.88,2.661,9.423c0.514,3.033,0.966,6.358,1.315,9.301 c-0.001,0.004,0.001,0.014,0,0.018c0.527,4.421,0.834,7.979,0.802,8.397c-0.002,0.008-0.002,0.022-0.004,0.03 c-0.045,0.512-0.39,0.963-0.742,1.298l-0.001,0.004c-0.403,0.391-0.816,0.625-0.816,0.625 c-0.063-0.075-1.342-0.772-3.238-1.839l-0.004-0.001c-2.125-1.192-5.032-2.842-7.873-4.584 c-2.975-1.814-5.888-3.73-7.783-5.326c-1.245-1.045-2.052-1.951-2.153-2.605c-0.529-3.443,3.036-13.034,6.591-14.779 c1.709-0.841,3.785-1.479,5.763-1.619C350.243,298.519,352.262,298.945,353.593,300.318z"/>
      <path style="fill:#FFEBEA;" d="M373.729,294.965c0.126,0.149,0.271,0.344,0.431,0.578c1.91,2.767,5.974,10.925,5.828,12.982 c-0.067,0.929-3.68,4.447-7.883,8.248c-4.842,4.377-10.466,9.128-12.333,10.697c0,0-0.001,0.004-0.005,0.003 c-0.407,0.341-0.637,0.533-0.637,0.533c-0.029-0.008-0.067-0.027-0.113-0.053c-0.153-0.086-0.389-0.266-0.651-0.467 c-0.597-0.469-1.299-1.073-1.299-1.073s0.158-3.09,0.5-7.354c0.001-0.004-0.001-0.013,0-0.018 c0.234-2.95,0.553-6.462,0.962-9.901c0.524-4.381,1.196-8.642,2.024-11.463c0.474-1.619,1.002-2.764,1.59-3.183 C365.691,291.949,372.098,293.038,373.729,294.965z"/>
      <path style="fill:#FFEBEA;" d="M382.624,315.852c3.348,1.041,4.303,8.696,3.904,13.023c-0.098,1.057-0.666,2.473-1.508,4.003 c-2.589,4.723-7.73,10.533-9.348,10.169c-0.286-0.066-0.806-0.351-1.493-0.801c-1.57-1.016-3.996-2.872-6.487-4.848 c-4.456-3.537-9.109-7.46-9.364-7.671c-0.007-0.006-0.01-0.012-0.01-0.012l0.302-1.507c0,0,0.139-0.089,0.397-0.256 c0.187-0.12,0.444-0.283,0.75-0.48c0.004,0.001,0.005-0.003,0.005-0.003c2.397-1.527,8.125-5.109,13.302-7.908 C377.386,317.233,381.317,315.447,382.624,315.852z"/>
      <path style="fill:#FFEBEA;" d="M358.318,329.716c0,0,0.003,0.005,0.01,0.012c0.207,0.255,3.859,4.804,7.09,9.391 c2.752,3.912,5.198,7.85,4.935,9.166c-0.251,1.275-1.742,3.639-3.659,5.868c-2.472,2.868-5.66,5.504-7.839,5.285 c-3.877-0.389-12.424-1.96-12.472-5.499c-0.005-0.173,0.02-0.391,0.062-0.639c0.437-2.506,3.049-8.619,5.47-13.948 c0.805-1.765,1.587-3.444,2.262-4.879c1.229-2.613,2.109-4.406,2.109-4.406l1.101-0.189L358.318,329.716z"/>
    </g>
    <path style="fill:#FEC0BD;" d="M363.822,309.401c3.758,1.039,6.657,3.785,8.283,7.372c-4.842,4.377-10.466,9.128-12.333,10.697 c2.397-1.527,8.125-5.109,13.302-7.908c0.712,2.859,0.706,6.052-0.175,9.238c-0.967,3.496-2.838,6.452-5.208,8.6 c-4.456-3.537-9.109-7.46-9.364-7.671c0.207,0.255,3.859,4.804,7.09,9.391c-3.11,1.939-6.754,2.637-10.275,1.663 c-1.163-0.322-2.241-0.805-3.227-1.43c0.805-1.765,1.587-3.444,2.262-4.879c-1.052,1.142-2.306,2.491-3.615,3.892 c-3.342-2.802-5.283-7.367-5.188-12.334c2.982,0.499,5.926,1.075,8.19,1.542c-2.125-1.192-5.032-2.842-7.873-4.584 c0.1-0.536,0.223-1.076,0.371-1.612c1.575-5.695,5.548-9.96,10.191-11.637c0.514,3.033,0.966,6.358,1.315,9.301 c0.234-2.95,0.553-6.462,0.962-9.901C360.269,308.845,362.062,308.914,363.822,309.401z"/>
    <g>
      <polygon style="fill:#F8827F;" points="360.029,329.28 381.036,329.403 359.359,328.412 &#9;&#9;&#9;&#9;&#9;"/>
      <polygon style="fill:#F8827F;" points="358.13,325.456 366.46,302.738 358.84,325.766 &#9;&#9;&#9;&#9;&#9;"/>
      <path style="fill:#F8827F;" d="M345.711,313.605c0.124,0.375,10.748,13.777,10.748,13.777l0.609-0.969L345.711,313.605z"/>
      <polygon style="fill:#F8827F;" points="338.26,335.202 356.286,330.065 356.068,329.208 &#9;&#9;&#9;&#9;&#9;"/>
      <polygon style="fill:#F8827F;" points="356.831,349.891 357.303,330.914 358.17,330.244 &#9;&#9;&#9;&#9;&#9;"/>
    </g>
    <path style="fill:#DE578E;" d="M358.791,324.501c1.896,0.524,2.945,2.723,2.339,4.913c-0.311,1.126-1.002,2.028-1.856,2.568 c-0.802,0.51-1.758,0.699-2.675,0.446c-1.896-0.524-2.944-2.727-2.339-4.913c0.134-0.483,0.335-0.925,0.593-1.317 C355.754,324.82,357.313,324.092,358.791,324.501z"/>
    <path style="fill:#F685B4;" d="M357.539,325.746c1.896,0.524,2.94,2.726,2.335,4.912c-0.135,0.487-0.341,0.932-0.6,1.324 c-0.802,0.51-1.758,0.699-2.675,0.446c-1.896-0.524-2.944-2.727-2.339-4.913c0.134-0.483,0.335-0.925,0.593-1.317 C355.662,325.681,356.618,325.491,357.539,325.746z"/>
    <path style="fill:#FFEBEA;" d="M355.643,327.868c0.306,0.085,0.46,0.496,0.343,0.919c-0.117,0.423-0.46,0.697-0.767,0.613 c-0.306-0.085-0.46-0.496-0.343-0.919C354.993,328.057,355.336,327.783,355.643,327.868z"/>
    <path style="fill:#FFEBEA;" d="M356.526,329.904c0.148,0.041,0.222,0.24,0.165,0.444c-0.056,0.204-0.222,0.337-0.37,0.296 s-0.222-0.24-0.165-0.444C356.213,329.995,356.378,329.862,356.526,329.904z"/>
  </g>
  <g transform="matrix(1, 0, 0, 1, 239.081623, 116.915361)">
    <path style="fill:#DE6A7C;" d="M382.935,129.353c0,0-7.617,1.714-10.265-1.148c-2.648-2.862-0.612-4.53,1.853-5.06 C376.989,122.616,382.935,129.353,382.935,129.353z"/>
    <path style="fill:#DE6A7C;" d="M382.932,129.36c0,0-4.997-5.998-3.657-9.66c1.34-3.661,3.753-2.61,5.348-0.657 C386.219,120.997,382.932,129.36,382.932,129.36z"/>
    <path style="fill:#DE6A7C;" d="M382.932,129.36c0,0,2.403-7.428,6.215-8.25c3.811-0.822,4.211,1.78,3.411,4.171 C391.758,127.673,382.932,129.36,382.932,129.36z"/>
    <path style="fill:#DE6A7C;" d="M382.932,129.36c0,0,7.564-1.935,10.294,0.849c2.73,2.783,0.744,4.51-1.705,5.111 C389.072,135.921,382.932,129.36,382.932,129.36z"/>
    <path style="fill:#DE6A7C;" d="M382.932,129.36c0,0,5.478,5.563,4.447,9.322c-1.031,3.76-3.523,2.913-5.275,1.099 C380.352,137.967,382.932,129.36,382.932,129.36z"/>
    <path style="fill:#DE6A7C;" d="M382.932,129.36c0,0-2.207,7.489-5.996,8.411c-3.788,0.922-4.256-1.669-3.519-4.08 C374.154,131.279,382.932,129.36,382.932,129.36z"/>
  </g>
  <g transform="matrix(1, 0, 0, 1, 714.869945, -58.877896)">
    <path style="fill:#DE6A7C;" d="M382.935,129.353c0,0-7.617,1.714-10.265-1.148c-2.648-2.862-0.612-4.53,1.853-5.06 C376.989,122.616,382.935,129.353,382.935,129.353z"/>
    <path style="fill:#DE6A7C;" d="M382.932,129.36c0,0-4.997-5.998-3.657-9.66c1.34-3.661,3.753-2.61,5.348-0.657 C386.219,120.997,382.932,129.36,382.932,129.36z"/>
    <path style="fill:#DE6A7C;" d="M382.932,129.36c0,0,2.403-7.428,6.215-8.25c3.811-0.822,4.211,1.78,3.411,4.171 C391.758,127.673,382.932,129.36,382.932,129.36z"/>
    <path style="fill:#DE6A7C;" d="M382.932,129.36c0,0,7.564-1.935,10.294,0.849c2.73,2.783,0.744,4.51-1.705,5.111 C389.072,135.921,382.932,129.36,382.932,129.36z"/>
    <path style="fill:#DE6A7C;" d="M382.932,129.36c0,0,5.478,5.563,4.447,9.322c-1.031,3.76-3.523,2.913-5.275,1.099 C380.352,137.967,382.932,129.36,382.932,129.36z"/>
    <path style="fill:#DE6A7C;" d="M382.932,129.36c0,0-2.207,7.489-5.996,8.411c-3.788,0.922-4.256-1.669-3.519-4.08 C374.154,131.279,382.932,129.36,382.932,129.36z"/>
  </g>
</svg>